<?xml version="1.0" encoding="utf-8"?>
<!-- Generator: Adobe Illustrator 23.0.1, SVG Export Plug-In . SVG Version: 6.00 Build 0)  -->
<svg version="1.1" id="Layer_1" xmlns="http://www.w3.org/2000/svg" xmlns:xlink="http://www.w3.org/1999/xlink" x="0px" y="0px"
	 viewBox="0 0 3000 1032.32" style="enable-background:new 0 0 3000 1032.32;" xml:space="preserve">
<style type="text/css">
	.st0{fill:#3F3F3F;}
	.st1{fill:#45B34A;}
</style>
<g>
	<path class="st0" d="M896.37,11.96l-98.8,349.21c0,0-11.07,70.69-70.69,62.18c0,0-70.1-11.81-50.57-79.32l71.37-227.5l-298.17,7.72
		c0,0-156.25-7.38-188.74,164.53c0,0-29.03,101.17,62.39,198.03c0,0,45.74,46.95,146.28,50.89c0,0,49.92,0.22,46.63,57.28
		c-3.46,60.03-47.27,61.75-48.12,61.75c-0.85,0-45.14,8.52-118.39-15.76c0,0-94.29-31.17-165.24-130.31
		c0,0-37.95-55.47-48.12-119.03c0,0-20.59-118.5,35.77-213.36c0,0,59.87-124.36,194.48-157.64c0,0,20.3-6.57,76.37-8.66H896.37z"/>
	<g>
		<path class="st1" d="M979.76,428.58c23.92,16.25,57.76,28.88,88.9,28.88c23.02,0,42.87-4.96,42.87-22.11
			c0-13.54-8.57-18.05-23.47-23.47l-41.97-12.18c-46.48-13.54-72.2-36.55-72.2-82.58c0-55.06,46.48-85.29,104.7-85.29
			c37.46,0,64.08,8.12,87.1,20.76v66.79c-24.82-17.15-52.35-27.53-83.94-27.53c-20.76,0-36.55,5.87-36.55,19.86
			c0,12.64,8.57,17.6,23.02,22.11l41.97,12.64c50.54,15.79,73.56,42.42,73.56,84.84c0,60.02-50.99,86.65-113.27,86.65
			c-37,0-70.4-10.38-90.71-22.56V428.58z"/>
		<path class="st1" d="M1338.53,517.93c-79.88,0-134.93-60.47-134.93-143.06c0-83.04,55.06-143.06,134.93-143.06
			c80.33,0,135.83,60.02,135.83,143.06C1474.36,457.46,1418.85,517.93,1338.53,517.93z M1338.53,295.45
			c-37.46,0-61.83,31.59-61.83,79.43s24.37,79.42,61.83,79.42s62.73-31.59,62.73-79.42S1375.98,295.45,1338.53,295.45z"/>
		<path class="st1" d="M1504.59,513.42V236.33h194.95v62.73h-123.2v55.06h113.27v61.37h-113.27v97.93H1504.59z"/>
		<path class="st1" d="M1721.65,236.33h243.69v62.28h-85.74v214.81h-72.66V298.61h-85.29V236.33z"/>
		<path class="st1" d="M2214.44,435.8c0,50.09-34.3,77.62-92.06,77.62h-127.26V236.33h118.69c57.76,0,92.51,25.72,92.51,75.36
			c0,29.78-16.7,51.45-37,58.67C2195.48,378.94,2214.44,404.66,2214.44,435.8z M2105.68,346c21.21,0,32.49-8.12,32.49-25.27
			c0-17.15-11.28-24.82-32.49-24.82h-41.52V346H2105.68z M2064.16,453.85h48.74c20.31,0,31.59-10.83,31.59-26.63
			c0-16.7-11.28-27.08-31.59-27.08h-48.74V453.85z"/>
		<path class="st1" d="M2444.58,236.33v62.28h-126.81v43.32h115.98v60.92h-115.98v47.84h126.81v62.73h-198.11V236.33H2444.58z"/>
		<path class="st1" d="M2725.28,513.42h-58.67l-115.98-162.01v162.01h-69.95V236.33h67.69l106.95,152.53V236.33h69.95V513.42z"/>
		<path class="st1" d="M2983.4,513.42h-228.35v-1.81l120.04-213h-114.63v-62.28h224.29v1.81l-118.24,212.55h116.88V513.42z"/>
	</g>
	<g>
		<g>
			<path class="st0" d="M1785.6,668.23c-26.93,0-44.39,23.44-44.39,55.86c0,32.42,17.46,55.86,44.39,55.86
				c26.93,0,44.64-23.44,44.64-55.86C1830.24,691.68,1812.53,668.23,1785.6,668.23z M965.33,589.93v274.32H2672.2l251.59-274.32
				H965.33z M1086.33,800.66h-25.94V647.53h25.94V800.66z M1350.93,800.66h-19.95l-78.31-111.48v111.48h-24.94V647.53h24.44
				l73.82,106.24V647.53h24.94V800.66z M1590.08,670.48h-71.82v45.39h67.09v22.69h-67.09v62.1h-25.94V647.53h97.76V670.48z
				 M1785.6,803.15c-41.4,0-70.58-33.42-70.58-79.06c0-45.89,29.18-79.06,70.58-79.06c41.4,0,70.83,33.17,70.83,79.06
				C1856.43,769.73,1827,803.15,1785.6,803.15z M2031.99,803.15c-20.45,0-37.91-5.99-48.63-13.47V762.5
				c13.97,11.22,30.67,17.71,48.63,17.71c17.46,0,29.68-6.23,29.68-19.95c0-11.97-7.73-16.71-21.45-21.95l-22.2-7.98
				c-20.45-7.48-35.91-18.46-35.91-43.64c0-26.93,23.44-41.65,51.62-41.65c17.21,0,32.92,4.49,45.14,12.47v26.69
				c-12.72-9.73-26.68-16.46-44.64-16.46c-15.46,0-26.93,5.99-26.93,18.46c0,11.22,7.23,15.71,19.95,20.2l24.69,8.98
				c23.94,8.73,34.92,22.2,34.92,44.39C2086.85,787.69,2063.16,803.15,2031.99,803.15z M2283.62,739.56v61.1h-25.69v-61.1
				l-55.36-92.02h28.18l40.65,68.58l40.4-68.58h27.43L2283.62,739.56z M2504.82,803.15c-20.45,0-37.91-5.99-48.63-13.47V762.5
				c13.97,11.22,30.67,17.71,48.63,17.71c17.46,0,29.68-6.23,29.68-19.95c0-11.97-7.73-16.71-21.45-21.95l-22.2-7.98
				c-20.45-7.48-35.91-18.46-35.91-43.64c0-26.93,23.44-41.65,51.62-41.65c17.21,0,32.92,4.49,45.14,12.47v26.69
				c-12.72-9.73-26.68-16.46-44.64-16.46c-15.46,0-26.93,5.99-26.93,18.46c0,11.22,7.23,15.71,19.95,20.2l24.69,8.98
				c23.94,8.73,34.92,22.2,34.92,44.39C2559.68,787.69,2535.99,803.15,2504.82,803.15z"/>
		</g>
	</g>
	<path class="st1" d="M10.64,1019.2l97.27-349.64c0,0,10.76-70.74,70.42-62.48c0,0,70.15,11.51,50.92,79.1l-70.38,227.81
		l298.13-9.03c0,0,156.28,6.69,188.02-165.35c0,0,28.59-101.3-63.26-197.75c0,0-45.95-46.75-146.51-50.25c0,0-49.92,0-46.88-57.07
		c3.19-60.04,47-61.96,47.85-61.96c0.85,0,45.1-8.71,118.46,15.24c0,0,94.42,30.76,165.8,129.59c0,0,38.19,55.31,48.64,118.82
		c0,0,21.1,118.4-34.84,213.51c0,0-59.32,124.62-193.79,158.49c0,0-20.27,6.66-76.33,9L10.64,1019.2z"/>
</g>
<g>
</g>
<g>
</g>
<g>
</g>
<g>
</g>
<g>
</g>
</svg>
