<?xml version="1.0" standalone="no"?>
<!DOCTYPE svg PUBLIC "-//W3C//DTD SVG 20010904//EN"
 "http://www.w3.org/TR/2001/REC-SVG-20010904/DTD/svg10.dtd">
<svg version="1.0" xmlns="http://www.w3.org/2000/svg"
 width="193.000000pt" height="193.000000pt" viewBox="0 0 193.000000 193.000000"
 preserveAspectRatio="xMidYMid meet">
<metadata>
Created by potrace 1.14, written by Peter Selinger 2001-2017
</metadata>
<g transform="translate(0.000000,193.000000) scale(0.100000,-0.100000)"
fill="#000000" stroke="none">
<path d="M800 1810 c-25 -4 -94 -10 -155 -14 -60 -3 -123 -8 -140 -11 -71 -14
-82 -16 -115 -21 -19 -3 -38 -8 -41 -10 -4 -2 -24 -6 -45 -10 -22 -3 -50 -12
-64 -19 -14 -7 -47 -20 -75 -29 -118 -38 -129 -155 -39 -409 14 -40 32 -77 40
-83 8 -6 14 -15 14 -19 0 -4 11 -28 24 -54 12 -26 29 -63 35 -84 7 -20 26 -48
42 -62 21 -17 29 -31 24 -44 -3 -10 1 -38 9 -61 22 -65 136 -246 184 -293 24
-23 49 -55 56 -72 7 -16 70 -89 140 -162 139 -144 177 -168 248 -158 74 11 97
28 221 162 l48 51 -58 38 c-60 40 -237 205 -255 237 -9 17 -5 18 64 16 92 -3
207 -23 277 -49 46 -17 59 -19 95 -8 22 6 44 11 48 10 13 -3 75 89 139 207
l63 114 -22 17 c-11 9 -66 33 -121 53 -155 56 -323 85 -458 81 -62 -2 -94 3
-153 23 -101 34 -210 93 -277 150 -64 55 -65 53 72 74 97 14 418 18 525 7 108
-12 229 -37 357 -75 l121 -36 51 32 c48 31 51 36 77 119 15 48 29 117 32 153
4 57 1 70 -16 87 -11 11 -18 22 -16 25 8 8 -224 68 -355 93 -163 30 -504 49
-601 34z"/>
</g>
</svg>
