<svg xmlns="http://www.w3.org/2000/svg" width="141.921" height="137.63" viewBox="0 0 141.921 137.63">
  <g id="Group_8" data-name="Group 8" transform="translate(-89.312 -192.953)">
    <path id="Path_463" data-name="Path 463" d="M160.323,192.963q29.748,0,59.5.006c8.429.005,11.39,2.957,11.4,11.421q.031,35.247,0,70.5c-.008,8.133-2.973,11.05-11.2,11.034-4.99-.01-11.684,1.771-14.518-.741-3.245-2.878-.916-9.71-1.008-14.816q-.234-12.994.014-26c.087-4.607-1.586-6.691-6.438-6.56q-12.988.353-25.994-.006c-4.843-.133-6.451,1.872-6.381,6.546.188,12.5-.046,25,.133,37.5.045,3.235-.775,4.2-4.126,4.176-20.664-.165-41.33-.062-61.995-.1-6.814-.013-10.305-3.254-10.33-10q-.135-36.5.021-72.995c.03-6.7,3.563-9.923,10.428-9.939C119.993,192.932,140.158,192.962,160.323,192.963Zm-33.582,46.309v.026c6.663,0,13.327-.067,19.989.027,3.7.053,5.536-1.33,5.468-5.274q-.215-12.24-.011-24.486c.067-3.985-1.413-5.743-5.559-5.7q-19.738.209-39.479.008c-3.84-.035-5.488,1.5-5.453,5.3q.112,12.49.006,24.984c-.034,3.546,1.411,5.2,5.051,5.146C113.413,239.2,120.078,239.272,126.741,239.272Zm59.508-26.266c7.473,0,14.945.015,22.418-.015,1.229-.005,2.824.442,2.775-1.754-.044-1.932-1.307-1.969-2.725-1.967q-22.418.02-44.836.009c-1.508,0-3.131-.157-3.011,2.156.115,2.2,1.8,1.538,2.961,1.546C171.3,213.034,178.776,213.009,186.249,213.006Zm.488,1.764c-7.656,0-15.313-.022-22.969.025-1.164.007-2.826-.634-2.906,1.594s1.373,2.247,2.972,2.246q22.22-.027,44.439-.02c1.48,0,3.153.3,3.167-2.021.017-2.565-1.937-1.782-3.232-1.794C201.052,214.737,193.894,214.77,186.737,214.77Zm-.684,9.11c7.5,0,14.993.025,22.49-.027,1.154-.008,2.813.668,2.892-1.61s-1.359-2.225-2.951-2.224q-22.24.021-44.48.01c-1.417,0-3.148-.453-3.133,2.005.016,2.573,1.9,1.81,3.192,1.82C171.393,223.913,178.723,223.883,186.053,223.88Zm-.6-16.1q11.448,0,22.9,0c1.465,0,3.094.343,3.067-2.056-.028-2.557-1.88-1.811-3.181-1.813q-22.149-.059-44.3-.011c-1.375,0-3.137-.544-3.074,1.968.062,2.476,1.83,1.888,3.187,1.9C171.185,207.8,178.319,207.777,185.454,207.777Zm1.044,17.916q-11.448,0-22.894,0c-1.3,0-2.77-.3-2.68,1.841.072,1.736,1.252,1.658,2.419,1.658q22.646.006,45.29-.008c1.314,0,2.79.1,2.7-1.93-.093-2.2-1.786-1.541-2.941-1.55C201.1,225.656,193.8,225.682,186.5,225.693ZM115.782,259.36c1.327,0,2.656-.045,3.98.01,2.629.107,4.655.232,4.632-3.711-.024-3.968-2.1-3.709-4.695-3.643a77.022,77.022,0,0,1-7.955-.033c-2.887-.228-4.063.53-4.114,3.754-.053,3.4,1.455,3.9,4.176,3.653C113.121,259.272,114.456,259.37,115.782,259.36Zm22.1,0v.016c1.163,0,2.327.042,3.488-.009,2.31-.1,4.857.827,4.9-3.408.044-4.16-2.038-4.1-4.924-3.952a69.009,69.009,0,0,1-7.969,0c-2.607-.172-3.928.354-3.921,3.438.007,3.01.81,4.341,3.942,3.943A35.82,35.82,0,0,1,137.884,259.355Z" fill="#fc6400"/>
    <path id="Path_464" data-name="Path 464" d="M189.368,288.564c4.227-1.83,7.6-2.005,8.633,3.084.278,1.372.745,1,1.535.495,5.074-3.233,6.244.69,7.834,4.664,1.4-1.465,3.018-2.582,5-1.713,2.055.9,2.742,2.812,3.049,4.843,1.014,6.69.737,13.25-2.15,19.519-3.444,7.477-9.685,10.9-17.512,11.113-7.409.2-14.063-1.629-18.1-9-3.5-6.4-7.551-12.513-11.475-18.677-2.2-3.454-2.487-6.913,1.082-9.163,3.9-2.46,5.959.9,7.812,3.736a27.72,27.72,0,0,0,4.826,6.121q0-12.518,0-25.034c0-2-.019-3.993.009-5.989.042-3.119,1.026-5.892,4.552-6,3.92-.119,4.842,2.9,4.884,6.158C189.417,277.86,189.368,283,189.368,288.564Z" fill="#402e32"/>
    <path id="Path_465" data-name="Path 465" d="M201.94,264.835c0,6-.223,12,.08,17.982.2,4.014-2.348,3.248-4.506,3.107-2.121-.139-5.328,1.348-4.992-3.166a76.375,76.375,0,0,0-.061-10.981c-.365-5.223-3.727-8.666-7.964-8.56s-7.456,3.726-7.64,8.867a108.526,108.526,0,0,0,.021,10.987c.246,3.746-2.306,2.944-4.282,2.854-1.844-.084-4.516,1.229-4.479-2.646.122-12.656.045-25.313.048-37.971,0-3.283,1.6-4.842,4.934-4.815q11.989.095,23.981.007c3.74-.032,4.92,1.946,4.88,5.35C201.886,252.178,201.939,258.507,201.94,264.835Z" fill="#402e32"/>
    <path id="Path_466" data-name="Path 466" d="M126.741,239.272c-6.663,0-13.328-.073-19.988.029-3.64.057-5.085-1.6-5.051-5.146q.123-12.49-.006-24.984c-.035-3.8,1.613-5.334,5.453-5.3q19.738.185,39.479-.008c4.146-.043,5.626,1.715,5.559,5.7q-.205,12.24.011,24.486c.068,3.944-1.77,5.327-5.468,5.274-6.662-.1-13.326-.027-19.989-.027C126.741,239.29,126.741,239.281,126.741,239.272Zm-3.762-21.291v1.7c-4.685-.756-6.182,2.4-6.768,5.995-.447,2.748-.128,5.62-.152,8.437-.009,1.019-.025,2.138,1.337,2.208,1.8.094,1.427-1.34,1.575-2.442.207-1.545-.729-3.447.959-4.657,2.714,1.932-1.813,6.711,4.274,7.438,7.085.846,5.032-4.369,6.028-7.806,2.1,1.794,1.125,3.748,1.322,5.465.119,1.046.206,2.113,1.527,2.06,1.3-.053,1.424-1.145,1.4-2.178a66.406,66.406,0,0,0-.272-8.925c-.505-3.249-1.972-6.042-6.1-5.658L128,217.964c2.22-1.979,3.863-4.146,2.222-7.29a5.334,5.334,0,0,0-9.9.926C119.428,214.4,121.04,216.29,122.979,217.981Z" fill="#fdfdfd"/>
    <path id="Path_467" data-name="Path 467" d="M186.249,213.007c-7.473,0-14.945.027-22.417-.025-1.158-.008-2.846.654-2.961-1.546-.12-2.313,1.5-2.156,3.011-2.156q22.417,0,44.836-.009c1.418,0,2.681.035,2.725,1.967.049,2.2-1.547,1.749-2.775,1.754C201.194,213.021,193.722,213.006,186.249,213.007Z" fill="#e9e9e9"/>
    <path id="Path_468" data-name="Path 468" d="M186.737,214.77c7.156,0,14.314-.032,21.471.03,1.3.012,3.249-.771,3.232,1.794-.014,2.323-1.687,2.021-3.167,2.021q-22.22.008-44.439.02c-1.6,0-3.05-.011-2.972-2.246s1.742-1.587,2.906-1.594C171.425,214.747,179.081,214.77,186.737,214.77Z" fill="#e9e9e9"/>
    <path id="Path_469" data-name="Path 469" d="M186.053,223.881c-7.33,0-14.66.032-21.99-.027-1.293-.011-3.177.753-3.192-1.82-.016-2.458,1.716-2,3.133-2.005q22.239-.022,44.48-.01c1.592,0,3.029-.065,2.951,2.224s-1.737,1.6-2.892,1.61C201.046,223.9,193.55,223.88,186.053,223.881Z" fill="#e9e9e9"/>
    <path id="Path_470" data-name="Path 470" d="M185.454,207.777c-7.135,0-14.27.021-21.4-.019-1.356-.008-3.125.58-3.187-1.9-.063-2.512,1.7-1.966,3.074-1.968q22.149-.033,44.3.011c1.3,0,3.152-.743,3.181,1.813.026,2.4-1.6,2.055-3.067,2.056Q196.9,207.783,185.454,207.777Z" fill="#e9e9e9"/>
    <path id="Path_471" data-name="Path 471" d="M186.5,225.688c7.3-.006,14.6-.031,21.9.021,1.155.009,2.849-.646,2.941,1.55.086,2.034-1.39,1.929-2.7,1.93q-22.644.024-45.29.008c-1.167,0-2.347.078-2.419-1.658-.09-2.14,1.384-1.84,2.68-1.841Q175.051,225.686,186.5,225.688Z" fill="#fdfdfd"/>
    <path id="Path_472" data-name="Path 472" d="M115.782,259.365c-1.326.005-2.661-.093-3.977.025-2.721.243-4.229-.251-4.176-3.653.051-3.224,1.228-3.981,4.114-3.754a76.744,76.744,0,0,0,7.955.033c2.591-.066,4.671-.325,4.695,3.643.023,3.943-2,3.818-4.632,3.711C118.438,259.315,117.109,259.36,115.782,259.365Z" fill="#e9e9e9"/>
    <path id="Path_473" data-name="Path 473" d="M137.884,259.355a35.974,35.974,0,0,0-4.48.031c-3.133.4-3.936-.934-3.942-3.943-.007-3.084,1.313-3.609,3.921-3.438a69.009,69.009,0,0,0,7.969,0c2.886-.143,4.968-.208,4.924,3.952-.045,4.235-2.593,3.308-4.9,3.408-1.161.051-2.325.009-3.488.009A.037.037,0,0,1,137.884,259.355Z" fill="#e9e9e9"/>
    <path id="Path_474" data-name="Path 474" d="M128.114,219.616c4.129-.384,5.6,2.409,6.1,5.658a66.24,66.24,0,0,1,.272,8.925c.02,1.033-.1,2.125-1.4,2.178-1.321.054-1.408-1.014-1.527-2.06-.2-1.717.783-3.671-1.322-5.465-1,3.437,1.057,8.651-6.028,7.806-6.087-.727-1.561-5.506-4.274-7.438-1.688,1.21-.752,3.112-.959,4.657-.148,1.1.227,2.536-1.575,2.442-1.362-.07-1.346-1.189-1.337-2.208.024-2.816-.295-5.688.152-8.437.586-3.6,2.083-6.751,6.768-5.995C124.712,221.266,126.421,221.043,128.114,219.616Z" fill="#402e32"/>
    <path id="Path_475" data-name="Path 475" d="M122.979,217.981c-1.939-1.691-3.552-3.581-2.648-6.382a5.334,5.334,0,0,1,9.9-.926c1.642,3.144,0,5.311-2.222,7.29Q125.494,217.972,122.979,217.981Z" fill="#402e32"/>
    <path id="Path_476" data-name="Path 476" d="M122.979,217.981l5.026-.019.108,1.653c-1.693,1.427-3.4,1.649-5.135.064Q122.979,218.831,122.979,217.981Z" fill="#e9e9e9"/>
  </g>
</svg>
