<svg xmlns="http://www.w3.org/2000/svg" width="132.745" height="119.881" viewBox="0 0 132.745 119.881">
  <g id="Group_6" data-name="Group 6" transform="translate(-930.524 -462.231)">
    <path id="Path_417" data-name="Path 417" d="M983.938,534.444H958.152c-.884,0-1.835.226-1.787-1.25.245-7.655-.637-15.36.479-22.96a27.2,27.2,0,0,1,20.519-21.994,27.571,27.571,0,0,1,34.152,26.8c-.044,5.89-.053,11.782.041,17.673.026,1.481-.484,1.783-1.831,1.775-8.6-.047-17.192-.026-25.788-.026C983.938,534.455,983.938,534.449,983.938,534.444Zm-2.629-41.715a21.251,21.251,0,0,0-19.1,13.932c-1.823,5.083-1.155,10.339-1.291,15.544-.028,1.091.278,2,1.523,1.989,1.3-.015,1.416-1.036,1.411-2.071-.012-2.585.042-5.17-.006-7.754a18.787,18.787,0,0,1,11.635-17.5,19.967,19.967,0,0,1,6.495-1.266,1.387,1.387,0,0,0,1.535-1.222c.074-.618-.031-1.293-.693-1.5A5.657,5.657,0,0,0,981.31,492.729Z" transform="translate(12.948 12.688)" fill="#fc6400"/>
    <path id="Path_418" data-name="Path 418" d="M988.4,546.883c-12.979,0-25.958-.026-38.935.032-1.5.006-2.154-.24-2.011-1.924.17-2.031.008-4.084.059-6.125a6.6,6.6,0,0,1,6.1-6.618,17.709,17.709,0,0,1,1.978-.063q32.986-.018,65.973-.026c5.031,0,7.709,2.639,7.717,7.6,0,1.8-.1,3.613.033,5.406.11,1.464-.418,1.771-1.8,1.766-13.039-.051-26.076-.032-39.114-.032A.118.118,0,0,1,988.4,546.883Z" transform="translate(8.506 35.177)" fill="#402e32"/>
    <path id="Path_419" data-name="Path 419" d="M986.27,535.3c-11,0-22-.027-32.993.032-1.359.008-1.754-.353-1.7-1.7.1-2.581.02-5.167.032-7.751.016-3.422,1.9-5.312,5.384-5.318q15.414-.023,30.829,0,13.793,0,27.585-.006c3.813,0,5.6,1.792,5.608,5.615.008,2.525-.054,5.05.036,7.571.045,1.258-.343,1.608-1.607,1.6-11.058-.05-22.117-.03-33.173-.03C986.27,535.314,986.27,535.307,986.27,535.3ZM956,527.866h.012c0,.839-.023,1.676.006,2.512a1.31,1.31,0,0,0,1.475,1.423,1.263,1.263,0,0,0,1.375-1.335c.034-1.673.036-3.347.02-5.022A1.331,1.331,0,0,0,957.416,524,1.385,1.385,0,0,0,956,525.535C956,526.312,956,527.089,956,527.866Z" transform="translate(10.588 29.341)" fill="#402e32"/>
    <path id="Path_420" data-name="Path 420" d="M1013.64,477.117a3.108,3.108,0,0,1-1.136,2.313q-8.707,8.707-17.42,17.414c-1.384,1.378-3.14,1.455-4.315.289a2.893,2.893,0,0,1,.123-4.326q8.827-8.915,17.73-17.749a2.877,2.877,0,0,1,3.48-.613A2.65,2.65,0,0,1,1013.64,477.117Z" transform="translate(29.846 5.976)" fill="#fc6400"/>
    <path id="Path_421" data-name="Path 421" d="M967.476,494.953a2.9,2.9,0,0,1-4.251,2.609A10.893,10.893,0,0,1,961.2,495.8q-7.785-7.744-15.547-15.508a17.267,17.267,0,0,1-1.216-1.327,2.839,2.839,0,0,1,.117-4.037,2.873,2.873,0,0,1,4.058.057c2.13,1.992,4.173,4.078,6.235,6.143,3.718,3.725,7.4,7.481,11.148,11.178A4.247,4.247,0,0,1,967.476,494.953Z" transform="translate(6.604 5.98)" fill="#fc6400"/>
    <path id="Path_422" data-name="Path 422" d="M1013.618,505.992c-3.965,0-7.929.008-11.892,0-2.423-.008-3.745-1.075-3.7-2.941.045-1.772,1.41-2.862,3.636-2.863q12.073-.007,24.146.012c2.418.006,3.864,1.494,3.424,3.51-.367,1.676-1.544,2.292-3.183,2.286-4.144-.021-8.289-.006-12.433-.006C1013.618,505.984,1013.618,505.987,1013.618,505.992Z" transform="translate(33.956 19.089)" fill="#fc6400"/>
    <path id="Path_423" data-name="Path 423" d="M978.542,477.758c0,4.085.009,8.169-.008,12.253-.008,2.23-1.106,3.466-2.99,3.422-1.744-.038-2.775-1.284-2.779-3.472q-.023-12.254,0-24.507c0-2.019,1.076-3.2,2.823-3.223,1.853-.027,2.94,1.144,2.95,3.271C978.558,469.589,978.543,473.674,978.542,477.758Z" transform="translate(21.242 0)" fill="#fc6400"/>
    <path id="Path_424" data-name="Path 424" d="M946.076,505.975c-4.081,0-8.161.014-12.242,0-2.1-.009-3.346-1.147-3.308-2.94.033-1.679,1.309-2.833,3.265-2.838q12.333-.025,24.662,0c2.1,0,3.328,1.166,3.29,2.976-.036,1.783-1.162,2.776-3.246,2.785-4.141.02-8.282.006-12.421.006A.031.031,0,0,1,946.076,505.975Z" transform="translate(0 19.09)" fill="#fc6400"/>
    <path id="Path_425" data-name="Path 425" d="M979.756,490.963a5.73,5.73,0,0,1,1.508.156c.661.2.767.879.693,1.5a1.388,1.388,0,0,1-1.535,1.222,19.966,19.966,0,0,0-6.495,1.266,18.786,18.786,0,0,0-11.635,17.5c.048,2.584-.006,5.169.006,7.754,0,1.034-.108,2.056-1.411,2.071-1.245.015-1.55-.9-1.523-1.989.138-5.205-.532-10.461,1.291-15.544A21.246,21.246,0,0,1,979.756,490.963Z" transform="translate(14.502 14.453)" fill="#fefefe"/>
    <path id="Path_426" data-name="Path 426" d="M954.52,526.714c0-.777,0-1.554,0-2.331a1.388,1.388,0,0,1,1.411-1.535,1.329,1.329,0,0,1,1.473,1.444c.018,1.674.016,3.349-.02,5.022a1.264,1.264,0,0,1-1.375,1.335,1.31,1.31,0,0,1-1.475-1.423c-.029-.836-.006-1.673-.006-2.512Z" transform="translate(12.07 30.493)" fill="#fefefe"/>
  </g>
</svg>
