<svg xmlns="http://www.w3.org/2000/svg" width="148.574" height="157.005" viewBox="0 0 148.574 157.005">
  <g id="Group_11" data-name="Group 11" transform="translate(-93.83 -18.974)">
    <path id="Path_757" data-name="Path 757" d="M216.228,105.487c-.278-.644-.561-1.322-.863-1.994-6.4-14.193-16.4-24.833-31.3-29.893-18.99-6.446-35.889-2.052-50.513,11.395a54.214,54.214,0,0,0-13.809,20.92c-.369.963-.482,1.508-1.476.347a65.9,65.9,0,0,1-9.05-14.671c-1.487-3.1-3.1-6.142-4.353-9.357a45.992,45.992,0,0,1-2.588-22.657,52.914,52.914,0,0,1,1.38-8.248c1.886-6.594,6.153-11.533,11.192-15.852,7.682-6.585,16.713-10.62,26.417-13.119,19.923-5.131,39.661-4.536,59.066,2.531a56.857,56.857,0,0,1,21.74,13.564,68.217,68.217,0,0,1,4.791,5.447,19.571,19.571,0,0,1,4.04,11.252c.63,10.838-.4,21.5-4.081,31.781a77.3,77.3,0,0,1-9.953,18.173A.754.754,0,0,1,216.228,105.487Z" fill="#fc6400"/>
    <path id="Path_758" data-name="Path 758" d="M123.8,121.854c-.039-1.083,1.04-1.44,1.482-2.23a13.463,13.463,0,0,1,1.891-2.217c1.094-1.215.858-2.164-.517-3.023-1.908-1.194-3.971-2.195-5.493-3.936a73.523,73.523,0,0,1,5.054-10.393c7.056-11.443,16.648-19.8,29.778-23.346,14.717-3.974,28.279-1.088,40.448,8.072,8.64,6.506,14.5,15.1,18.4,25.1-1.373,1.861-3.524,2.669-5.361,3.884-1.333.881-1.553,1.986-.375,3.105,1.142,1.082,2.223,2.229,3.334,3.344.245.246.415.5.232.856-5.573,15.92-16.807,25.664-32.875,30.136-.356.1-.708.213-1.062.32a3.4,3.4,0,0,1-1.58-.432c-5.535-2.582-10.682-5.863-15.969-8.889a2.347,2.347,0,0,0-3.212.358c-2.045,1.959-3.9,4.09-5.852,6.14a2.932,2.932,0,0,1-1.058.873,52.322,52.322,0,0,1-13.075-7.593A45.579,45.579,0,0,1,123.8,121.854Zm64.232-11.332a19.791,19.791,0,0,0-.38-4.163,20.043,20.043,0,0,0-24.458-16.037c-10.386,2.641-17.028,13.607-14.759,24.369,1.9,9.011,9.083,15.69,17.65,16.411C178.056,132.109,188.028,122.76,188.031,110.522Z" fill="#fc6400"/>
    <path id="Path_759" data-name="Path 759" d="M179.2,153.957c-2.38.123-4.652.267-6.927.343-.672.022-.908.162-.767.885a40.469,40.469,0,0,0,5.6,14.924,19.416,19.416,0,0,0,3.228,3.464,1.983,1.983,0,0,0,2.829.156c3.694-2.511,5.979-6.057,7.688-10.058a62.585,62.585,0,0,0,2.183-6.548,21.9,21.9,0,0,1-.057,6,19.456,19.456,0,0,1-2.357,8.4,7.507,7.507,0,0,1-6.3,4.013c-3.473.228-6.942.842-10.417.057a22.164,22.164,0,0,1-10.263-5.389,39.785,39.785,0,0,1-8.975-12.853c-.936-2.021-.967-2.013-3.227-1.848-1.158.085-2.314.2-3.472.289-.065.005-.138-.085-.313-.2.42-.482.815-.976,1.25-1.428,3.327-3.453,6.675-6.884,9.98-10.356a1.16,1.16,0,0,1,1.75-.232c5.979,3.6,12.017,7.1,18.327,10.106C179.021,153.715,179.063,153.8,179.2,153.957Z" fill="#402e32"/>
    <path id="Path_760" data-name="Path 760" d="M222.644,107.241c-.214,1.225-.341,2.036-.5,2.842-.18.913.06,1.407,1.064,1.7a53.749,53.749,0,0,1,12.4,5.352,17.791,17.791,0,0,1,5.173,4.621,7.4,7.4,0,0,1,1.609,5.072c-.076,1.162-.2,2.324-.18,3.485.029,2.29-1.245,3.59-3.181,4.455a23.1,23.1,0,0,1-6.436,1.771,66.787,66.787,0,0,1-9.123.469,8.967,8.967,0,0,1,3.481-.84c4.172-.856,8.3-1.869,11.789-4.443,3.084-2.278,2.668-2.33-.176-4.073-4.286-2.625-9.175-3.5-14.038-4.374-.867-.154-1.741-.273-2.613-.4-.721-.109-1.012.212-1,.931a27.878,27.878,0,0,1-.178,4.151c-1.394-1.62-2.6-3.254-3.891-4.821a86.8,86.8,0,0,0-6.063-6.747c-.775-.763-.79-1.159.146-1.74C214.713,112.291,218.467,109.888,222.644,107.241Z" fill="#402e32"/>
    <path id="Path_761" data-name="Path 761" d="M114.257,108.028c1.26.8,2.4,1.485,3.5,2.225q3.887,2.6,7.745,5.241c.379.259,1.03.421.4,1.113-3.49,3.854-6.947,7.737-10.366,11.877,0-1.319-.032-2.638.013-3.954.025-.727-.2-1-.953-.938-6.208.556-12.268,1.645-17.707,4.935-1.691,1.023-1.755,1.6-.265,2.871,3.587,3.053,7.953,4.343,12.438,5.317,1.042.227,2.1.366,3.14.672-4.055-.067-8.134.159-12.069-1.184-.528-.18-1.069-.333-1.578-.558-2.276-1-4.121-2.229-4.553-5.08a10.873,10.873,0,0,1,3.307-10.249c3.187-3.021,7.093-4.735,11.109-6.252a51.569,51.569,0,0,1,5.179-1.646c.895-.233,1.112-.576.9-1.453A8.05,8.05,0,0,1,114.257,108.028Z" fill="#402e32"/>
  </g>
</svg>
