<svg xmlns="http://www.w3.org/2000/svg" width="234.346" height="219.641" viewBox="0 0 234.346 219.641">
  <g id="Group_7" data-name="Group 7" transform="translate(-300 -142.135)">
    <rect id="Rectangle_214" data-name="Rectangle 214" width="205" height="110.333" transform="translate(317.583 170.814)" fill="#f2f2f2"/>
    <path id="Path_427" data-name="Path 427" d="M300.253,361.69l-.253.086.038-.243Z" fill="#e9e9e9"/>
    <path id="Path_428" data-name="Path 428" d="M361.639,314.853a7.629,7.629,0,0,1-2.058-5.408q.137-13.246.01-26.494c-.049-4.425,2.012-6.4,6.345-6.395q53.479.027,106.959.021c3.787,0,5.867,1.763,5.835,5.806q-.108,13.746.011,27.493a6.574,6.574,0,0,1-2.367,5.242c-3.152.128-6.307.364-9.46.366q-49.425.039-98.85-.015C365.922,315.466,363.78,315.067,361.639,314.853Z" fill="#fc6400"/>
    <path id="Path_429" data-name="Path 429" d="M484.442,291.106c-.908-3.781-.311-7.619-.366-11.427-.067-4.579-2.108-6.588-6.764-6.538-6.8.073-6.906-.316-6.286-7.288.174-1.952.79-2.546,2.692-2.541,18.486.053,36.973.02,55.46.051,2.616.005,4.894,1.281,5.005,3.917.279,6.647.15,13.316-.018,19.971-.025.982-1.152,1.938-1.77,2.9a16.709,16.709,0,0,1-6.795.9Q505.025,291.058,484.442,291.106Z" fill="#402e32"/>
    <path id="Path_430" data-name="Path 430" d="M305.621,289.891c-2.83-4.456-1.314-9.4-1.4-14.107-.235-12.457-.078-12.45,12.528-12.442,15.473.01,30.949.187,46.416-.118,4.293-.085,4.418,1.792,4.314,4.994-.1,2.95.342,5.3-4.18,5.111-8.184-.339-8.834.637-8.867,8.664-.012,2.99-.113,5.98-.176,8.971-14.287.023-28.574.016-42.861.1A13.849,13.849,0,0,1,305.621,289.891Z" fill="#402e32"/>
    <path id="Path_431" data-name="Path 431" d="M465.8,208.661c0,19.991-.1,39.983.093,59.974.036,3.721-.866,4.683-4.644,4.658q-41.98-.268-83.963-.018c-3.495.018-4.852-.463-4.834-4.488.176-39.815.1-79.632.117-119.448,0-6.3.907-7.183,7.233-7.188q39.483-.03,78.966,0c5.809,0,7.035,1.229,7.041,7.039q.031,29.736.008,59.474Zm-46.916-23.514h28.492c10.887,0,10.662,0,10.859-10.928.078-4.289-1.6-4.881-5.273-4.853-20.326.159-40.654.094-60.982.113-11.755.011-11.637.018-11.666,11.532-.008,3.165.688,4.282,4.08,4.218C395.887,185.013,407.387,185.147,418.885,185.147Zm.009,5.067q-13.738,0-27.478,0c-11.1,0-10.922.008-11.131,11.085-.072,3.788.979,4.712,4.713,4.678,20.48-.189,40.963-.086,61.445-.084,11.949,0,11.793,0,11.777-11.752-.005-3.51-1.293-4.038-4.357-4C442.208,190.3,430.551,190.209,418.894,190.214Zm-.041,36.247q17.709,0,35.417-.008c1.778,0,4.551.323,4.258-2.058-.4-3.309.232-6.435.229-9.632-.005-2.819-1.758-3.86-4.859-3.836-20.783.165-41.568.078-62.353.072-11.323,0-11.192,0-11.239,11.408-.014,3.253.848,4.2,4.13,4.14C395.9,226.349,407.379,226.471,418.853,226.461Zm.063,41.559q14,0,27.994,0c11.514,0,11.377,0,11.318-11.7-.016-3.373-1.08-4.1-4.285-4.083-20.662.143-41.325.069-61.988.067-11.754,0-11.629,0-11.646,11.59-.006,3.216.758,4.264,4.115,4.2C395.918,267.887,407.418,268.017,418.916,268.02Zm.023-20.774h28.5c10.779,0,10.6,0,10.787-10.99.064-3.777-.975-4.746-4.72-4.712-20.665.187-41.332.092-62,.093-11.292,0-11.159,0-11.2,11.564-.014,3.272.871,4.185,4.141,4.128C395.938,247.131,407.439,247.252,418.939,247.246Zm.384-98.406H391.89c-11.711,0-11.549,0-11.6,11.572-.017,3.478,1.2,4.01,4.263,3.992,20.615-.118,41.231-.025,61.848-.1,3.786-.013,8.764,1.636,11.013-.788,1.868-2.015.32-6.964.831-10.534.5-3.517-.846-4.231-4.006-4.2C442.6,148.922,430.961,148.843,419.323,148.84Z" fill="#fc6400"/>
    <path id="Path_432" data-name="Path 432" d="M313.683,216.179c0-13.663-.03-27.326.01-40.988.017-5.783,1.341-7.1,7.021-7.11q21.492-.036,42.986.024c1.576.006,3.789-.944,3.766,2.3-.023,3.115-2.1,2.422-3.781,2.427-13.329.041-26.666.293-39.984-.088-5.581-.159-3.992,3.286-4.2,6.124-.221,3.022-.275,5.257,4.182,5.146,13.154-.329,26.322-.165,39.484-.051,1.463.013,4.277-1.38,4.125,1.795-.142,2.941-2.832,1.567-4.322,1.581-13.162.119-26.329.255-39.485-.031-4.12-.09-4.417,1.9-3.938,4.81.417,2.539-2.142,6.556,3.8,6.417,13.319-.312,26.652-.125,39.979-.033,1.521.011,4.174-1.142,4.015,2.034-.14,2.78-2.528,1.551-3.894,1.561-13.161.1-26.33.3-39.481-.07-4.608-.13-4.745,1.979-4.485,5.3.227,2.894-1.217,6.2,4.279,6.022,12.982-.408,25.988-.2,38.982-.047,1.555.019,4.688-1.6,4.527,1.829-.147,3.158-3.148,1.637-4.782,1.655-12.659.145-25.325.275-37.979-.028-4.279-.1-5.3,1.234-5.135,5.284.156,3.878.083,6.283,5.4,6.082,12.811-.485,25.653-.2,38.482-.086,1.436.013,4.2-1.407,4.037,1.839-.133,2.728-2.57,1.458-3.917,1.469-13.162.1-26.333.315-39.484-.073-4.841-.143-4.52,2.326-4.4,5.477.118,3.024-.941,6.107,4.431,5.935,13.148-.423,26.32-.169,39.483-.084,1.517.01,4.2-1.141,3.928,2.067-.233,2.705-2.608,1.432-3.973,1.442-13.162.1-26.327.19-39.487-.02-3.459-.056-4.582.784-4.461,4.354.232,6.787.016,6.793,6.934,6.793,12.33,0,24.66-.043,36.989.054,1.481.012,4.11-1.239,4.016,1.96-.082,2.774-2.419,1.7-3.814,1.708-15.328.072-30.657-.036-45.985.114-3.066.03-3.975-.8-3.937-3.9C313.779,243.505,313.686,229.841,313.683,216.179Z" fill="#402e32"/>
    <path id="Path_433" data-name="Path 433" d="M524.621,216.179c-.006,13.667-.1,27.334.064,41,.037,3.078-.8,3.923-3.9,3.89-15.331-.16-30.665-.038-46-.1-1.406-.006-3.7.975-3.654-1.908s2.344-1.777,3.719-1.785c13.333-.076,26.674-.307,39.995.086,5.255.154,3.975-2.976,4-5.7.024-2.783,1.092-5.79-4.072-5.628-12.987.407-26,.206-38.994.045-1.531-.019-4.683,1.678-4.532-1.776.139-3.155,3.154-1.656,4.791-1.675,12.831-.143,25.675-.365,38.494.064,5.473.184,4.2-3.037,4.354-6,.167-3.227.271-5.56-4.485-5.419-13.154.391-26.328.181-39.493.073-1.3-.011-3.747,1.291-3.745-1.667,0-2.978,2.477-1.638,3.754-1.648,13.332-.114,26.671-.284,40,.047,5.294.132,3.866-3.207,3.914-5.877.047-2.589,1.139-5.57-3.789-5.447-13.324.334-26.664.146-40,.067-1.4-.008-3.744,1.112-3.875-1.636-.158-3.31,2.571-1.89,4-1.9,13-.113,26.006-.323,38.994.065,4.808.145,4.936-2.052,4.745-5.569-.167-3.106.681-5.948-4.54-5.772-13.152.442-26.328.179-39.494.093-1.351-.009-3.712,1.162-3.727-1.732-.016-2.822,2.283-1.859,3.711-1.866,13.334-.066,26.67-.223,40,.06,4.053.086,4.445-1.782,3.975-4.753-.412-2.6,2.01-6.6-3.84-6.486-13.328.271-26.665.133-40,.037-1.339-.01-3.737,1.205-3.825-1.642-.09-2.924,2.341-1.752,3.683-1.761,13.332-.09,26.671-.291,39.994.058,5.272.138,3.946-3.109,4-5.837.048-2.646,1.047-5.561-3.836-5.437-12.991.331-26,.171-39,.04-1.757-.018-4.719,1.535-4.914-2.24-.207-4.01,2.906-2.38,4.6-2.4,13.832-.125,27.666-.081,41.5-.063,6.571.008,7.424.879,7.433,7.6Q524.649,195.929,524.621,216.179Z" fill="#402e32"/>
    <path id="Path_434" data-name="Path 434" d="M418.885,185.147c-11.5,0-23-.135-34.49.083-3.393.064-4.088-1.053-4.08-4.218.029-11.515-.089-11.521,11.666-11.532,20.328-.02,40.656.046,60.982-.113,3.678-.028,5.352.563,5.273,4.853-.2,10.924.027,10.928-10.859,10.928Zm-30.053-7.854a2.5,2.5,0,0,0-5,.093,2.4,2.4,0,0,0,2.547,2.478C387.91,179.856,388.7,178.813,388.832,177.293Zm7.652,2.62c1.492-.152,2.564-.865,2.728-2.377a2.252,2.252,0,0,0-2.292-2.631,2.212,2.212,0,0,0-2.645,2.245A2.5,2.5,0,0,0,396.484,179.913Z" fill="#f2f2f2"/>
    <path id="Path_435" data-name="Path 435" d="M418.894,190.212c11.657,0,23.314.092,34.97-.066,3.064-.042,4.353.486,4.357,4,.016,11.753.172,11.753-11.777,11.752-20.482,0-40.965-.1-61.445.084-3.734.034-4.785-.89-4.713-4.678.209-11.077.029-11.082,11.131-11.085Q405.154,190.211,418.894,190.212Zm-32.741,5.219c-1.461.409-2.45,1.3-2.327,2.807a2.329,2.329,0,0,0,2.729,2.231,2.262,2.262,0,0,0,2.256-2.684A2.509,2.509,0,0,0,386.153,195.431Zm33.8,2.608a2.544,2.544,0,0,0-2.426-2.537,2.349,2.349,0,0,0-2.609,2.4,2.228,2.228,0,0,0,2.358,2.566C418.9,200.549,419.674,199.625,419.957,198.039Zm-12.943-2.61c-1.43.323-2.488,1.087-2.471,2.629a2.3,2.3,0,0,0,2.547,2.4,2.222,2.222,0,0,0,2.418-2.494A2.56,2.56,0,0,0,407.014,195.429Zm-10.739-.005c-1.1.491-2.15,1.173-2.019,2.792a2.48,2.48,0,0,0,4.942-.408C399.029,196.331,398,195.554,396.275,195.424Z" fill="#f2f2f2"/>
    <path id="Path_436" data-name="Path 436" d="M418.853,226.466c-11.474.005-22.948-.117-34.418.082-3.282.058-4.144-.887-4.13-4.14C380.352,211,380.221,211,391.544,211c20.784.006,41.569.093,62.353-.072,3.1-.024,4.854,1.017,4.859,3.836,0,3.2-.634,6.323-.229,9.632.293,2.381-2.479,2.055-4.258,2.058Q436.56,226.476,418.853,226.466Zm-29.992-7.578c-.108-1.432-.752-2.519-2.318-2.652a2.388,2.388,0,0,0-2.706,2.308,2.309,2.309,0,0,0,2.286,2.666C387.727,221.365,388.514,220.381,388.861,218.888Z" fill="#f2f2f2"/>
    <path id="Path_437" data-name="Path 437" d="M418.916,268.018c-11.5,0-23-.131-34.492.08-3.357.061-4.121-.987-4.115-4.2.018-11.589-.107-11.59,11.646-11.59,20.663,0,41.326.075,61.988-.067,3.2-.022,4.27.71,4.285,4.083.059,11.7.2,11.7-11.318,11.7Q432.914,268.019,418.916,268.018Zm-11.81-5.29c1.271-.259,2.378-.832,2.416-2.471a2.287,2.287,0,0,0-2.395-2.563,2.358,2.358,0,0,0-2.6,2.393C404.465,261.693,405.542,262.392,407.106,262.728Zm-18.243-2.678a2.527,2.527,0,0,0-5.042-.06,2.365,2.365,0,0,0,2.324,2.688C387.631,262.8,388.633,261.941,388.863,260.05Zm31.117.014a2.581,2.581,0,0,0-2.407-2.4,2.508,2.508,0,0,0-.331,5.006C418.773,262.794,419.648,261.831,419.98,260.064Zm7.766,2.659c1.414-.27,2.523-.9,2.547-2.519a2.365,2.365,0,0,0-2.492-2.521,2.3,2.3,0,0,0-2.508,2.461C425.273,261.763,426.3,262.456,427.746,262.723Zm-30.866-.029c1.457-.334,2.479-1.156,2.334-2.707a2.366,2.366,0,0,0-2.694-2.282,2.271,2.271,0,0,0-2.275,2.658C394.355,261.956,395.4,262.6,396.88,262.694Zm43.706-2.306c.022-1.547-.708-2.589-2.259-2.682a2.38,2.38,0,0,0-2.729,2.251,2.336,2.336,0,0,0,2.307,2.673A2.291,2.291,0,0,0,440.586,260.388Z" fill="#f2f2f2"/>
    <path id="Path_438" data-name="Path 438" d="M418.939,247.249c-11.5,0-23-.118-34.5.08-3.27.057-4.154-.855-4.141-4.128.046-11.565-.087-11.564,11.2-11.564,20.667,0,41.334.094,62-.093,3.745-.034,4.784.935,4.72,4.712-.188,10.988-.008,10.991-10.787,10.99Q433.188,247.246,418.939,247.249Zm-1.691-10.273a2.335,2.335,0,0,0-2.348,2.657,2.37,2.37,0,0,0,2.661,2.37,2.428,2.428,0,0,0,2.347-2.689A2.348,2.348,0,0,0,417.248,236.976Zm-30.926.005a2.325,2.325,0,0,0-2.5,2.486A2.425,2.425,0,0,0,386.341,242a2.361,2.361,0,0,0,2.479-2.53A2.292,2.292,0,0,0,386.322,236.981Zm43.983,2.155a2.426,2.426,0,0,0-2.8-2.11,2.176,2.176,0,0,0-2.166,2.7,2.274,2.274,0,0,0,2.69,2.225A2.567,2.567,0,0,0,430.3,239.136Zm-23.284,2.914a2.55,2.55,0,0,0,2.5-2.565,2.257,2.257,0,0,0-2.457-2.491,2.336,2.336,0,0,0-2.535,2.458A2.6,2.6,0,0,0,407.021,242.05Zm33.579-2.611a2.508,2.508,0,0,0-5.015.038,2.434,2.434,0,0,0,2.543,2.51C439.676,241.989,440.455,240.961,440.6,239.439Zm-43.858-2.512c-1.336.136-2.432.731-2.488,2.362a2.345,2.345,0,0,0,2.282,2.689,2.427,2.427,0,0,0,2.683-2.355C399.387,238.051,398.344,237.257,396.742,236.927Z" fill="#f2f2f2"/>
    <path id="Path_439" data-name="Path 439" d="M419.323,148.841c11.638,0,23.276.081,34.913-.05,3.16-.036,4.51.679,4.006,4.2-.511,3.57,1.037,8.52-.831,10.534-2.249,2.424-7.227.775-11.013.788-20.616.069-41.232-.023-61.848.1-3.063.018-4.279-.515-4.263-3.992.054-11.572-.108-11.572,11.6-11.572Zm-30.44,7.555c-.363-1.357-1.085-2.388-2.715-2.279a2.356,2.356,0,0,0-2.345,2.65,2.381,2.381,0,0,0,2.667,2.367C388.078,159.021,388.717,157.921,388.883,156.4Zm31.136.265c-.345-1.354-.875-2.525-2.553-2.538a2.348,2.348,0,0,0-2.569,2.445,2.371,2.371,0,0,0,2.465,2.563C419.018,159.176,419.606,157.995,420.019,156.661Zm-10.5.149c-.014-1.547-.7-2.565-2.291-2.666a2.481,2.481,0,1,0-.371,4.948C408.431,159.263,409.264,158.3,409.52,156.81Zm-10.236-.094c-.168-1.486-.862-2.514-2.448-2.579a2.486,2.486,0,0,0-.232,4.967C398.184,159.173,398.932,158.129,399.284,156.716Z" fill="#f2f2f2"/>
    <path id="Path_440" data-name="Path 440" d="M388.834,177.3c-.136,1.514-.924,2.558-2.457,2.565a2.4,2.4,0,0,1-2.547-2.478,2.5,2.5,0,0,1,5-.087Z" fill="#1c1c1c"/>
    <path id="Path_441" data-name="Path 441" d="M396.484,179.913a2.494,2.494,0,0,1-2.209-2.763,2.212,2.212,0,0,1,2.645-2.245,2.252,2.252,0,0,1,2.292,2.631C399.049,179.048,397.977,179.761,396.484,179.913Z" fill="#1c1c1c"/>
    <path id="Path_442" data-name="Path 442" d="M386.153,195.431a2.511,2.511,0,0,1,2.658,2.354,2.262,2.262,0,0,1-2.256,2.684,2.329,2.329,0,0,1-2.729-2.231C383.7,196.731,384.692,195.84,386.153,195.431Z" fill="#1c1c1c"/>
    <path id="Path_443" data-name="Path 443" d="M419.957,198.039c-.283,1.586-1.053,2.51-2.677,2.425a2.228,2.228,0,0,1-2.358-2.566,2.35,2.35,0,0,1,2.609-2.4A2.544,2.544,0,0,1,419.957,198.039Z" fill="#1c1c1c"/>
    <path id="Path_444" data-name="Path 444" d="M407.014,195.429a2.559,2.559,0,0,1,2.494,2.539,2.222,2.222,0,0,1-2.418,2.494,2.3,2.3,0,0,1-2.547-2.4C404.525,196.516,405.584,195.752,407.014,195.429Z" fill="#1c1c1c"/>
    <path id="Path_445" data-name="Path 445" d="M396.275,195.424c1.721.13,2.754.907,2.924,2.384a2.48,2.48,0,0,1-4.942.408C394.125,196.6,395.18,195.915,396.275,195.424Z" fill="#1c1c1c"/>
    <path id="Path_446" data-name="Path 446" d="M388.861,218.888c-.348,1.493-1.135,2.478-2.738,2.321a2.309,2.309,0,0,1-2.286-2.666,2.388,2.388,0,0,1,2.706-2.308C388.109,216.369,388.753,217.456,388.861,218.888Z" fill="#1c1c1c"/>
    <path id="Path_447" data-name="Path 447" d="M407.106,262.728c-1.564-.336-2.642-1.034-2.583-2.641a2.359,2.359,0,0,1,2.6-2.393,2.286,2.286,0,0,1,2.395,2.563C409.484,261.9,408.377,262.469,407.106,262.728Z" fill="#1c1c1c"/>
    <path id="Path_448" data-name="Path 448" d="M388.863,260.05c-.23,1.892-1.232,2.747-2.718,2.629a2.512,2.512,0,1,1,.368-5.011A2.4,2.4,0,0,1,388.863,260.05Z" fill="#1c1c1c"/>
    <path id="Path_449" data-name="Path 449" d="M419.98,260.064c-.332,1.767-1.207,2.729-2.738,2.608a2.508,2.508,0,0,1,.331-5.006A2.585,2.585,0,0,1,419.98,260.064Z" fill="#1c1c1c"/>
    <path id="Path_450" data-name="Path 450" d="M427.742,262.724c-1.441-.268-2.469-.961-2.449-2.58a2.3,2.3,0,0,1,2.508-2.461,2.365,2.365,0,0,1,2.492,2.521C430.27,261.819,429.16,262.453,427.742,262.724Z" fill="#1c1c1c"/>
    <path id="Path_451" data-name="Path 451" d="M396.88,262.694c-1.475-.1-2.524-.738-2.636-2.331a2.272,2.272,0,0,1,2.275-2.658,2.365,2.365,0,0,1,2.694,2.282C399.359,261.538,398.337,262.36,396.88,262.694Z" fill="#1c1c1c"/>
    <path id="Path_452" data-name="Path 452" d="M440.584,260.392a2.288,2.288,0,0,1-2.68,2.238,2.336,2.336,0,0,1-2.307-2.673,2.381,2.381,0,0,1,2.729-2.251C439.878,257.8,440.608,258.841,440.584,260.392Z" fill="#1c1c1c"/>
    <path id="Path_453" data-name="Path 453" d="M417.25,236.972a2.353,2.353,0,0,1,2.658,2.342A2.427,2.427,0,0,1,417.561,242a2.37,2.37,0,0,1-2.661-2.37A2.341,2.341,0,0,1,417.25,236.972Z" fill="#1c1c1c"/>
    <path id="Path_454" data-name="Path 454" d="M386.324,236.979a2.3,2.3,0,0,1,2.5,2.489,2.361,2.361,0,0,1-2.479,2.53,2.424,2.424,0,0,1-2.522-2.531A2.328,2.328,0,0,1,386.324,236.979Z" fill="#1c1c1c"/>
    <path id="Path_455" data-name="Path 455" d="M430.3,239.136a2.567,2.567,0,0,1-2.28,2.81,2.274,2.274,0,0,1-2.69-2.225,2.175,2.175,0,0,1,2.166-2.7A2.426,2.426,0,0,1,430.3,239.136Z" fill="#1c1c1c"/>
    <path id="Path_456" data-name="Path 456" d="M407.021,242.05a2.6,2.6,0,0,1-2.5-2.6,2.336,2.336,0,0,1,2.535-2.458,2.257,2.257,0,0,1,2.457,2.491A2.551,2.551,0,0,1,407.021,242.05Z" fill="#1c1c1c"/>
    <path id="Path_457" data-name="Path 457" d="M440.6,239.445c-.142,1.516-.921,2.544-2.469,2.542a2.434,2.434,0,0,1-2.543-2.51,2.506,2.506,0,0,1,5.012-.032Z" fill="#1c1c1c"/>
    <path id="Path_458" data-name="Path 458" d="M396.742,236.927c1.6.33,2.645,1.124,2.477,2.7a2.425,2.425,0,0,1-2.683,2.355,2.346,2.346,0,0,1-2.282-2.689C394.311,237.658,395.406,237.063,396.742,236.927Z" fill="#1c1c1c"/>
    <path id="Path_459" data-name="Path 459" d="M388.883,156.4c-.166,1.525-.8,2.626-2.393,2.738a2.381,2.381,0,0,1-2.667-2.367,2.356,2.356,0,0,1,2.345-2.65C387.8,154.008,388.52,155.038,388.883,156.4Z" fill="#1c1c1c"/>
    <path id="Path_460" data-name="Path 460" d="M420.02,156.662c-.413,1.333-1,2.514-2.658,2.469a2.5,2.5,0,1,1,.1-5.008C419.144,154.136,419.674,155.307,420.02,156.662Z" fill="#1c1c1c"/>
    <path id="Path_461" data-name="Path 461" d="M409.52,156.81c-.256,1.495-1.089,2.453-2.662,2.282a2.481,2.481,0,1,1,.371-4.948C408.816,154.244,409.506,155.263,409.52,156.81Z" fill="#1c1c1c"/>
    <path id="Path_462" data-name="Path 462" d="M399.284,156.716c-.353,1.413-1.1,2.457-2.681,2.388a2.486,2.486,0,0,1,.232-4.967C398.422,154.2,399.116,155.229,399.284,156.716Z" fill="#1c1c1c"/>
  </g>
</svg>
