<svg xmlns="http://www.w3.org/2000/svg" width="189.335" height="109.14" viewBox="0 0 189.335 109.14">
  <g id="Group_9" data-name="Group 9" transform="translate(-567.718 -186.552)">
    <path id="Path_477" data-name="Path 477" d="M593.549,254.964h0Z" fill="none"/>
    <path id="Path_478" data-name="Path 478" d="M588.572,235.872a1.1,1.1,0,0,1-.121.081A1.114,1.114,0,0,0,588.572,235.872Z" fill="none"/>
    <path id="Path_479" data-name="Path 479" d="M588.71,235.729a.935.935,0,0,1-.1.1A.947.947,0,0,0,588.71,235.729Z" fill="none"/>
    <path id="Path_480" data-name="Path 480" d="M588.385,236c-.041.021-.092.038-.139.058C588.293,236.035,588.344,236.018,588.385,236Z" fill="none"/>
    <path id="Path_481" data-name="Path 481" d="M587.832,236.176c-.114.021-.239.039-.378.051C587.593,236.215,587.718,236.2,587.832,236.176Z" fill="none"/>
    <path id="Path_482" data-name="Path 482" d="M591.18,236.4a1.338,1.338,0,0,1,.125-.1A1.343,1.343,0,0,0,591.18,236.4Z" fill="none"/>
    <path id="Path_483" data-name="Path 483" d="M590.847,236.787a1.892,1.892,0,0,1,.149-.234A1.784,1.784,0,0,0,590.847,236.787Z" fill="none"/>
    <path id="Path_484" data-name="Path 484" d="M590.5,237.6a3.738,3.738,0,0,1,.226-.617A3.672,3.672,0,0,0,590.5,237.6Z" fill="none"/>
    <path id="Path_485" data-name="Path 485" d="M588.14,236.1c-.051.017-.113.029-.17.043C588.027,236.128,588.089,236.115,588.14,236.1Z" fill="none"/>
    <path id="Path_486" data-name="Path 486" d="M588.8,235.567a.909.909,0,0,1-.074.128A.909.909,0,0,0,588.8,235.567Z" fill="none"/>
    <path id="Path_487" data-name="Path 487" d="M608.1,252.314c.021.011.037.022.06.033h0C608.141,252.337,608.124,252.325,608.1,252.314Z" fill="none"/>
    <path id="Path_488" data-name="Path 488" d="M607.823,251.627c-.38-1.212.341-2.285.754-3.4C608.164,249.342,607.443,250.415,607.823,251.627Z" fill="none"/>
    <path id="Path_489" data-name="Path 489" d="M607.309,248.362v0Z" fill="none"/>
    <path id="Path_490" data-name="Path 490" d="M608.162,252.348c-.018.2-.035.4-.048.591.013-.194.031-.393.048-.591Z" fill="none"/>
    <path id="Path_491" data-name="Path 491" d="M611.224,241.439l1.207,1.846h0C612.051,242.7,611.67,242.122,611.224,241.439Z" fill="none"/>
    <path id="Path_492" data-name="Path 492" d="M607.307,248.646v0Z" fill="none"/>
    <path id="Path_493" data-name="Path 493" d="M614.154,233.738l-.014-.06c-.045-.091-.091-.182-.136-.272l.136.273S614.154,233.738,614.154,233.738Z" fill="none"/>
    <path id="Path_494" data-name="Path 494" d="M588.861,235.393a.864.864,0,0,1-.052.158A.817.817,0,0,0,588.861,235.393Z" fill="none"/>
    <path id="Path_495" data-name="Path 495" d="M576.828,257.936c-.047.02-.087.044-.13.065C576.741,257.979,576.781,257.955,576.828,257.936Z" fill="none"/>
    <path id="Path_496" data-name="Path 496" d="M576.581,258.061c-.031.02-.056.045-.085.066C576.525,258.105,576.55,258.08,576.581,258.061Z" fill="none"/>
    <path id="Path_497" data-name="Path 497" d="M577.12,257.842c-.081.021-.152.046-.224.072A2.179,2.179,0,0,1,577.12,257.842Z" fill="none"/>
    <path id="Path_498" data-name="Path 498" d="M578.139,257.711a5.652,5.652,0,0,0-.982.123A5.652,5.652,0,0,1,578.139,257.711Z" fill="none"/>
    <path id="Path_499" data-name="Path 499" d="M576.208,258.419a.5.5,0,0,0-.028.05A.5.5,0,0,1,576.208,258.419Z" fill="none"/>
    <path id="Path_500" data-name="Path 500" d="M576.317,258.289c.021-.021.037-.048.059-.068C576.354,258.241,576.338,258.267,576.317,258.289Z" fill="none"/>
    <path id="Path_501" data-name="Path 501" d="M576.934,259.785c-.474.576-.568,1.255-1.226,1.446h0C576.365,261.04,576.46,260.361,576.934,259.785Z" fill="none"/>
    <path id="Path_502" data-name="Path 502" d="M577,259.7a1.891,1.891,0,0,1,.265-.243A1.948,1.948,0,0,0,577,259.7Z" fill="none"/>
    <path id="Path_503" data-name="Path 503" d="M592.355,236.311c.025.01.049.013.073.022C592.4,236.323,592.381,236.32,592.355,236.311Z" fill="none"/>
    <path id="Path_504" data-name="Path 504" d="M590.529,239.769a35.684,35.684,0,0,0,2.783-2.961l0,0A35.275,35.275,0,0,1,590.529,239.769Z" fill="none"/>
    <path id="Path_505" data-name="Path 505" d="M592.8,236.511c.019.01.035.016.054.025C592.838,236.526,592.821,236.521,592.8,236.511Z" fill="none"/>
    <path id="Path_506" data-name="Path 506" d="M588.862,235.388c.116-.531-.152-1.211-.048-1.744C588.71,234.177,588.979,234.856,588.862,235.388Z" fill="none"/>
    <path id="Path_507" data-name="Path 507" d="M591.934,236.206c.031,0,.06,0,.092.005C591.993,236.205,591.965,236.21,591.934,236.206Z" fill="none"/>
    <path id="Path_508" data-name="Path 508" d="M593.313,236.808a8.073,8.073,0,0,1,1.844-1.455,8.108,8.108,0,0,0-1.843,1.453Z" fill="none"/>
    <path id="Path_509" data-name="Path 509" d="M599.2,245.4a8.637,8.637,0,0,0,.928-5.034A8.643,8.643,0,0,1,599.2,245.4Z" fill="none"/>
    <path id="Path_510" data-name="Path 510" d="M579.414,257.683c-.242,0-.463,0-.674.006C578.951,257.685,579.172,257.683,579.414,257.683Z" fill="none"/>
    <path id="Path_511" data-name="Path 511" d="M599.039,245.705c-.1.2-.206.4-.32.6C598.833,246.106,598.936,245.9,599.039,245.705Z" fill="none"/>
    <path id="Path_512" data-name="Path 512" d="M591.545,236.224c.035-.008.067-.027.1-.032A.9.9,0,0,0,591.545,236.224Z" fill="none"/>
    <path id="Path_513" data-name="Path 513" d="M607.811,252.149l-.015-.011A.086.086,0,0,0,607.811,252.149Z" fill="none"/>
    <path id="Path_514" data-name="Path 514" d="M607.829,251.65a2.474,2.474,0,0,0,.117.289A2.4,2.4,0,0,1,607.829,251.65Z" fill="none"/>
    <path id="Path_515" data-name="Path 515" d="M608.77,247.581c-.019.086-.038.172-.063.257C608.731,247.753,608.751,247.667,608.77,247.581Z" fill="none"/>
    <path id="Path_516" data-name="Path 516" d="M607.971,252c.043.087.1.175.153.263A2.863,2.863,0,0,1,607.971,252Z" fill="none"/>
    <path id="Path_517" data-name="Path 517" d="M613.886,233.111h0Z" fill="none"/>
    <path id="Path_518" data-name="Path 518" d="M614,259.025l0,0Z" fill="none"/>
    <path id="Path_519" data-name="Path 519" d="M614.662,259.971c.026.061.045.127.066.19C614.707,260.1,614.688,260.031,614.662,259.971Z" fill="none"/>
    <path id="Path_520" data-name="Path 520" d="M614.264,259.316c.015.018.025.038.04.057C614.289,259.354,614.278,259.334,614.264,259.316Z" fill="none"/>
    <path id="Path_521" data-name="Path 521" d="M614.484,259.63c.025.041.044.086.067.129C614.528,259.716,614.51,259.671,614.484,259.63Z" fill="none"/>
    <path id="Path_522" data-name="Path 522" d="M597.3,234.626c-.044.006-.086.02-.129.026C597.214,234.646,597.255,234.632,597.3,234.626Z" fill="none"/>
    <path id="Path_523" data-name="Path 523" d="M596.543,234.782c-.112.031-.218.075-.327.112C596.325,234.857,596.431,234.813,596.543,234.782Z" fill="none"/>
    <path id="Path_524" data-name="Path 524" d="M588.213,234.162c.089-.079.176-.16.264-.24C588.389,234,588.3,234.083,588.213,234.162Z" fill="none"/>
    <path id="Path_525" data-name="Path 525" d="M599.672,256.668c-.007.005-.012.011-.018.016S599.665,256.673,599.672,256.668Z" fill="none"/>
    <path id="Path_526" data-name="Path 526" d="M593.505,254.976h0a1.044,1.044,0,0,1,.362-.646A1.044,1.044,0,0,0,593.505,254.976Z" fill="none"/>
    <path id="Path_527" data-name="Path 527" d="M595.831,235.026a5.889,5.889,0,0,0-.614.3A6.1,6.1,0,0,1,595.831,235.026Z" fill="none"/>
    <path id="Path_528" data-name="Path 528" d="M587.389,234.914c.076-.072.149-.146.228-.218C587.538,234.768,587.465,234.842,587.389,234.914Z" fill="none"/>
    <path id="Path_529" data-name="Path 529" d="M586.5,235.842c.167-.206.347-.4.533-.592C586.849,235.439,586.669,235.636,586.5,235.842Z" fill="none"/>
    <path id="Path_530" data-name="Path 530" d="M608.662,247.98c-.019.057-.035.114-.056.172C608.627,248.1,608.644,248.037,608.662,247.98Z" fill="none"/>
    <path id="Path_531" data-name="Path 531" d="M608.758,254.089a1.189,1.189,0,0,1-.133,0A1.189,1.189,0,0,0,608.758,254.089Z" fill="none"/>
    <path id="Path_532" data-name="Path 532" d="M613.363,258.535c.271.927-1.043,2.169-.4,2.4C612.32,260.7,613.635,259.462,613.363,258.535Z" fill="none"/>
    <path id="Path_533" data-name="Path 533" d="M609.6,253.938a3.252,3.252,0,0,1-.565.147A3.1,3.1,0,0,0,609.6,253.938Z" fill="none"/>
    <path id="Path_534" data-name="Path 534" d="M611.622,256.149c-.634-.741-1.308-1.45-1.987-2.153l-.037-.058s.037.058.036.058C610.314,254.7,610.988,255.408,611.622,256.149Z" fill="none"/>
    <path id="Path_535" data-name="Path 535" d="M608.448,254.014a.675.675,0,0,1-.095-.04A.736.736,0,0,0,608.448,254.014Z" fill="none"/>
    <path id="Path_536" data-name="Path 536" d="M608.109,253.271c0-.052-.007-.1-.006-.154C608.1,253.17,608.108,253.219,608.109,253.271Z" fill="none"/>
    <path id="Path_537" data-name="Path 537" d="M608.252,253.838a.671.671,0,0,1-.06-.08A.658.658,0,0,0,608.252,253.838Z" fill="none"/>
    <path id="Path_538" data-name="Path 538" d="M608.147,253.583c-.009-.04-.024-.075-.03-.118C608.123,253.508,608.139,253.543,608.147,253.583Z" fill="none"/>
    <path id="Path_539" data-name="Path 539" d="M609.075,274.738a2.543,2.543,0,0,0,.745,2.252l.056.111s-.056-.111-.056-.112A2.539,2.539,0,0,1,609.075,274.738Z" fill="none"/>
    <path id="Path_540" data-name="Path 540" d="M614.792,260.343c.022.08.034.166.05.251C614.826,260.509,614.814,260.423,614.792,260.343Z" fill="none"/>
    <path id="Path_541" data-name="Path 541" d="M613.155,258.36c-.718-.512-1.514-.958-2.173-1.519C611.642,257.4,612.438,257.849,613.155,258.36Z" fill="none"/>
    <path id="Path_542" data-name="Path 542" d="M614.872,260.746a3.3,3.3,0,0,1,.025.439A3.3,3.3,0,0,0,614.872,260.746Z" fill="none"/>
    <path id="Path_543" data-name="Path 543" d="M610.886,256.766a4.678,4.678,0,0,1-.392-.4A4.678,4.678,0,0,0,610.886,256.766Z" fill="none"/>
    <path id="Path_544" data-name="Path 544" d="M609.974,255.617a3.284,3.284,0,0,1-.2-.578A3.207,3.207,0,0,0,609.974,255.617Z" fill="none"/>
    <path id="Path_545" data-name="Path 545" d="M610.374,256.236a3.479,3.479,0,0,1-.3-.46A3.352,3.352,0,0,0,610.374,256.236Z" fill="none"/>
    <path id="Path_546" data-name="Path 546" d="M609.716,254.879a3.774,3.774,0,0,1-.082-.883A3.774,3.774,0,0,0,609.716,254.879Z" fill="none"/>
    <path id="Path_547" data-name="Path 547" d="M608.828,247.2a2.925,2.925,0,0,1-.044.322A2.906,2.906,0,0,0,608.828,247.2Z" fill="none"/>
    <path id="Path_548" data-name="Path 548" d="M603.183,254.867c.084.037.234-.074.356-.122-.048-.121-.066-.308-.151-.345.085.037.1.224.15.345C603.417,254.793,603.267,254.9,603.183,254.867Z" fill="none"/>
    <path id="Path_549" data-name="Path 549" d="M598.55,257.756v.009h0Z" fill="none"/>
    <path id="Path_550" data-name="Path 550" d="M599.942,256.4c-.021.026-.036.058-.058.082C599.906,256.453,599.922,256.422,599.942,256.4Z" fill="none"/>
    <path id="Path_551" data-name="Path 551" d="M599.368,256.836c-.02,0-.031.007-.05.008.019,0,.032-.008.05-.008Z" fill="none"/>
    <path id="Path_552" data-name="Path 552" d="M598.55,257.765c-.02,0-.035,0-.055,0,.019,0,.035,0,.055,0Z" fill="none"/>
    <path id="Path_553" data-name="Path 553" d="M607.032,243.391c-.048-.121-.066-.308-.15-.345.084.037.1.223.15.345Z" fill="none"/>
    <path id="Path_554" data-name="Path 554" d="M605.624,231.162a2.516,2.516,0,0,0,.276.137,2.7,2.7,0,0,1-.276-.137Z" fill="none"/>
    <path id="Path_555" data-name="Path 555" d="M599.37,256.815c0,.008,0,.013,0,.021h0C599.368,256.828,599.37,256.823,599.37,256.815Z" fill="none"/>
    <path id="Path_556" data-name="Path 556" d="M596.631,259c0-.024,0-.055,0-.078C596.627,258.945,596.632,258.976,596.631,259Z" fill="none"/>
    <path id="Path_557" data-name="Path 557" d="M596.748,259.941a3.57,3.57,0,0,1-.11-.553A3.548,3.548,0,0,0,596.748,259.941Z" fill="none"/>
    <path id="Path_558" data-name="Path 558" d="M600.9,255.116c-.233.263-.468.525-.7.788q.351-.393.7-.788Z" fill="none"/>
    <path id="Path_559" data-name="Path 559" d="M600.183,255.922a1.433,1.433,0,0,1-.121.3A1.545,1.545,0,0,0,600.183,255.922Z" fill="none"/>
    <path id="Path_560" data-name="Path 560" d="M609.648,232.674c-.119-.051-.265-.17-.35-.137.086-.033.23.085.35.137Z" fill="none"/>
    <path id="Path_561" data-name="Path 561" d="M598.563,257.774c.01,0,.018-.01.028-.014a.235.235,0,0,1-.028.014Z" fill="none"/>
    <path id="Path_562" data-name="Path 562" d="M599.37,256.858l0-.013h0Z" fill="none"/>
    <path id="Path_563" data-name="Path 563" d="M598.476,257.933c.027-.055.062-.1.087-.158h0C598.537,257.83,598.5,257.878,598.476,257.933Z" fill="none"/>
    <rect id="Rectangle_215" data-name="Rectangle 215" width="0.001" height="0.001" transform="translate(598.562 257.774)" fill="#049540"/>
    <path id="Path_564" data-name="Path 564" d="M757.053,189.021c0-2.084-.64-2.471-2.563-2.469q-84.04.081-168.081.052-9.345,0-18.691,0V295.692h44.8v-.013q70.835,0,141.669,0c3.188,0,2.815.33,2.816-2.756Q757.011,240.973,757.053,189.021Zm-156.87,66.9a1.433,1.433,0,0,1-.121.3,1.215,1.215,0,0,1-.119.171c-.021.026-.036.058-.058.082a1.375,1.375,0,0,1-.213.19c-.007.005-.012.011-.018.016a1.732,1.732,0,0,1-.28.161c0,.005,0,.009,0,.014a1.163,1.163,0,0,1-.779.9c-.011,0-.019.01-.028.014-.025.056-.06.1-.087.158a6.234,6.234,0,0,1-1.728,2.009c-.111.134-.224.269-.336.4-.17.2-.34.4-.51.6a.188.188,0,0,1-.182.228,2.5,2.5,0,0,1-2.6,1.473c-4.771-.072-9.545-.019-14.317-.028-1.224,0-2.512.079-3.1-1.38l.006,0c-1.131-2.445-.06-4.3,2.619-4.351,3.545-.066,7.1-.138,10.634.031,1.947.093,3.46-.316,4.56-1.941a.028.028,0,0,1-.013,0h0a1.047,1.047,0,0,1,.362-.646.858.858,0,0,1,.234-.127l.009-.013a25.247,25.247,0,0,0,3.465-6.13s0,0,0,0a39.751,39.751,0,0,1,2.558-7.7l.032-.149a4.84,4.84,0,0,1,.893-2.69.3.3,0,0,1,.075-.364c.516-2.534.5-2.354-2.172-2.574a7.337,7.337,0,0,0-1.661.041c-.044.006-.085.02-.129.026a6.326,6.326,0,0,0-.627.13c-.112.031-.218.075-.327.112-.129.043-.261.08-.385.132a6.1,6.1,0,0,0-.614.3c-.02.011-.041.018-.061.028a8.073,8.073,0,0,0-1.844,1.455,35.674,35.674,0,0,1-2.783,2.961,2.632,2.632,0,0,1-3.877-.212,2.586,2.586,0,0,1-.15-3.715c.167-.206.347-.4.533-.592.114-.115.234-.225.354-.336.076-.072.149-.146.228-.218.2-.18.4-.356.6-.534.089-.079.176-.16.264-.24.11-.1.222-.2.329-.3a.82.82,0,0,1,.078-.2c2.527-3.585,5.814-5.306,10.326-4.576a33.649,33.649,0,0,0,5.646.044,3.011,3.011,0,0,1,2.188.764l.158.018a17.256,17.256,0,0,1,4.884,1.773.267.267,0,0,1,.354.092,1.487,1.487,0,0,1,.65.127c.521.247.684.822.8,1.444h0l-.023.005c.048.1.1.194.145.291s.091.182.136.272l.014.06c.8,1.782,1.74,3.52,2.371,5.361a2.464,2.464,0,0,0,2.932,1.857c1.584-.092,3.183.075,4.774.129l.436.046a1.261,1.261,0,0,1,1.266.851l.027.029c.1.123.207.246.311.368a2.736,2.736,0,0,1,.127,2.2c-.17,1.587-1.341,1.979-2.623,2.011-2.9.075-5.8.042-8.707.049-1.924,0-1.774-1.788-2.462-2.854-.059-.167-.116-.334-.175-.5l-1.207-1.846c-.9.707-.739,1.936-1.406,2.7v.009a3.73,3.73,0,0,1-.824,2.294c-.055.253-.109.505-.164.758a2.925,2.925,0,0,1-.044.322c0,.021-.011.04-.015.061-.019.086-.038.172-.063.257-.013.047-.03.1-.045.143s-.035.114-.056.172c-.01.025-.021.051-.029.076-.413,1.113-1.134,2.187-.754,3.4a.157.157,0,0,0,.006.023,2.474,2.474,0,0,0,.117.289c.01.019.015.037.024.057.043.087.1.175.153.263.019.029.032.059.052.089a3.888,3.888,0,0,1,1.422,1.591l.037.058c.68.7,1.354,1.412,1.987,2.153a19.219,19.219,0,0,1,1.745,2.354,4.85,4.85,0,0,1,.635.521l0,0a3.467,3.467,0,0,1,.259.287c.015.018.025.038.04.057.063.084.126.168.181.257.025.041.044.086.067.129.038.069.078.139.11.212s.045.127.066.19.047.118.063.182c.022.08.034.166.05.251.01.051.023.1.03.152a3.3,3.3,0,0,1,.025.439c-.026,4.649-.01,9.3-.027,13.946a2.717,2.717,0,0,1-1.722,2.776,2.491,2.491,0,0,1-3.272-.807l-.056-.111a2.543,2.543,0,0,1-.745-2.252c0-.116,0-.233,0-.35-.017-2.538-.17-5.09.038-7.611a6.286,6.286,0,0,0-2.476-6.063,7.561,7.561,0,0,1-1.108-1.316l-.047-.047a20.219,20.219,0,0,1-3.176-3.38.915.915,0,0,1-.352-.215c-.31-.283-.536-.7-1.056-.641-.234.263-.469.525-.7.788Zm6.493-32.535a5.944,5.944,0,0,1,11.885-.292,5.944,5.944,0,1,1-11.885.292ZM647.8,281.8c-5.2,1.834-10.3,3.967-15.4,6.077-1.367.566-1.713.38-1.729-1.134-.044-4.437-.1-4.421-4.645-4.414q-11.568.016-23.137,0c-1.014,0-1.994.219-1.976-1.443.075-6.838.033-13.677.044-20.516a3.945,3.945,0,0,1,.214-.785,4.758,4.758,0,0,1,1.72,3.629c-.1,5.164.006,10.331-.073,15.5-.021,1.349.361,1.719,1.709,1.71q12.22-.088,24.445,0c1.287.008,1.758-.3,1.756-1.687q-.057-36.232,0-72.466c0-1.223-.336-1.649-1.589-1.643q-12.332.067-24.664,0c-1.457-.01-1.631.63-1.622,1.843q.067,9.386,0,18.771c-.005.723.538,1.929-1.024,1.843-1.364-.074-.851-1.152-.855-1.814-.043-6.912.014-13.824-.073-20.735-.021-1.594.542-1.9,2.005-1.893,8.585.063,17.171-.009,25.756.068,1.583.015,2.209-.308,2.082-2.016-.16-2.165-.039-4.351-.039-6.9l14.9,7.646a4.815,4.815,0,0,0,1.553.765c2.911.224,2.584,2.24,2.582,4.256q-.047,36.234.016,72.467C649.762,280.509,649.467,281.206,647.8,281.8Zm89.694-39.158c-6.755,7.885-13.43,15.837-20.1,23.791a2.825,2.825,0,0,1-2.338,1.282c-6.4-.041-12.794-.02-19.775-.02,4.938-5.873,9.543-11.347,14.183-16.863-.649-.76-1.415-.445-2.067-.446-10.471-.016-20.943-.076-31.412.055-2.178.027-2.655-.618-2.587-2.667.154-4.575.13-9.163,0-13.74-.05-1.735.451-2.193,2.162-2.18,10.325.081,20.651.048,30.977.054h3.288c-4.931-5.869-9.565-11.389-14.562-17.337h5.115c4.8,0,9.6.036,14.4-.005a2.986,2.986,0,0,1,2.58,1.22q9.973,11.953,20.078,23.8C738.42,240.741,738.535,241.42,737.492,242.637Z" fill="#fc6400"/>
    <circle id="Ellipse_18" data-name="Ellipse 18" transform="translate(593.313 236.808)" fill="#049540"/>
    <path id="Path_565" data-name="Path 565" d="M717.349,215.781a2.989,2.989,0,0,0-2.58-1.22c-4.8.041-9.6.009-14.4.005h-5.115c5,5.948,9.631,11.468,14.562,17.337h-3.288c-10.325-.006-20.651.027-30.977-.054-1.711-.014-2.212.444-2.162,2.18.13,4.577.154,9.165,0,13.74-.068,2.049.409,2.694,2.587,2.667,10.469-.131,20.941-.07,31.412-.055.652,0,1.418-.313,2.067.446l-14.183,16.863c6.981,0,13.378-.021,19.775.02a2.827,2.827,0,0,0,2.338-1.282c6.674-7.954,13.349-15.906,20.1-23.791,1.043-1.217.928-1.9-.065-3.057Q727.3,227.752,717.349,215.781Z" fill="#f9fdfa"/>
    <path id="Path_566" data-name="Path 566" d="M649.743,206.456c0-2.016.329-4.032-2.582-4.256a4.815,4.815,0,0,1-1.553-.765l-14.9-7.646c0,2.55-.121,4.735.039,6.9.127,1.708-.5,2.03-2.082,2.016-8.585-.077-17.171-.005-25.756-.068-1.463-.011-2.025.3-2.005,1.893.087,6.911.03,13.823.073,20.735.005.662-.509,1.74.855,1.814,1.563.086,1.02-1.12,1.024-1.843q.054-9.386,0-18.771c-.009-1.213.165-1.853,1.622-1.843q12.332.087,24.664,0c1.253-.007,1.591.42,1.589,1.643q-.047,36.232,0,72.466c0,1.382-.469,1.694-1.756,1.687q-12.222-.08-24.445,0c-1.348.009-1.729-.361-1.709-1.71.079-5.165-.028-10.332.073-15.5a4.755,4.755,0,0,0-1.72-3.629,3.945,3.945,0,0,0-.214.785c-.011,6.839.031,13.678-.044,20.516-.019,1.662.962,1.443,1.976,1.443q11.57,0,23.137,0c4.541-.007,4.6-.022,4.645,4.414.016,1.514.361,1.7,1.729,1.134,5.1-2.11,10.2-4.243,15.4-6.077,1.669-.589,1.964-1.286,1.961-2.872Q649.678,242.691,649.743,206.456Z" fill="#f9fdfa"/>
    <path id="Path_567" data-name="Path 567" d="M600.9,255.116h0c.521-.063.747.357,1.057.641a.915.915,0,0,0,.352.215,3.409,3.409,0,0,1,3.176,3.38l.047.047a6.01,6.01,0,0,1,4.621,6.736c-.54,3.633-.135,7.242-.331,10.854,0,0,.056.112.056.112l3.143-.372c.021-.986-1.075-.438-1.159-1.14.035-.067.094-.287.157-.288,1.77-.034,2.272-.966,2.2-2.65-.118-2.814.04-5.641-.067-8.456-.042-1.122.75-2.553-1.188-3.259-.643-.232.672-1.475.4-2.4,0-.01,0-.021,0-.032-.066-.049-.137-.1-.2-.143-.718-.512-1.514-.958-2.173-1.519-.031-.026-.066-.05-.1-.076a4.678,4.678,0,0,1-.392-.4c-.038-.043-.084-.079-.12-.124a3.479,3.479,0,0,1-.3-.46c-.031-.056-.074-.1-.1-.159a3.284,3.284,0,0,1-.2-.578c-.016-.056-.043-.1-.056-.16a3.774,3.774,0,0,1-.082-.883s-.036-.058-.036-.058a3.252,3.252,0,0,1-.565.147,1.265,1.265,0,0,1-.274,0,1.189,1.189,0,0,1-.133,0,.581.581,0,0,1-.177-.076.731.731,0,0,1-.095-.04.55.55,0,0,1-.1-.136.671.671,0,0,1-.06-.08,1.119,1.119,0,0,1-.045-.175c-.009-.04-.024-.075-.03-.118-.007-.061-.006-.129-.008-.194s-.007-.1-.006-.154.008-.119.011-.178c.013-.193.03-.393.048-.591-.022-.011-.038-.022-.06-.033a3.038,3.038,0,0,1-.292-.165l-.015-.011c-1.334-.9-.557-2.28-.489-3.493v-.005a2.521,2.521,0,0,0,0-.274v0a2,2,0,0,0-.033-.271c-.2-1.008.876-.84,1.553-.893.055-.253.109-.505.164-.758-.056-.883-.223-1.807.824-2.294v-.009c0-.571,0-1.143,0-1.715.007-.734.023-1.6.952-1.643a2.8,2.8,0,0,1,2.344.726,1.013,1.013,0,0,1,.162.271.642.642,0,0,1,0,.482c-.145.376-.585.693-.847,1.025h0c.059.168.116.335.175.5a3.345,3.345,0,0,1,.87.574c.942,1.193,1.559.979,2.021-.719.377,2.653,2.014,2.6,3.935,2.768a12.225,12.225,0,0,0,6.967-1.828,2.732,2.732,0,0,0-.127-2.2c-.1-.122-.207-.245-.311-.368l-.027-.029c-.6-.017-1.216-.014-1.266-.851l-.436-.046c-.949.2-1.8.866-2.9.13-.588-.4-.814.409-1.11.94a2.611,2.611,0,0,1-4.766.091c-.188-.31-.388-.668-.092-1,.723-.806.979-1.941.209-2.507-1.066-.781-.965,1.166-1.927,1.235-.088-.148-.3-.438-.271-.466,1.874-1.714.441-3.864.775-5.773l-.014-.059L614,233.4c-.049-.1-.1-.193-.145-.291q-.273.059-.546.114c-.044.278-.042.6-.411.649-.073.01-.251-.168-.241-.241.05-.369.371-.367.649-.411q-.437-.845-.872-1.688a.267.267,0,0,0-.354-.092c-1.774-.189-4.023.93-4.884-1.773l-.158-.018c-3.606.026-7.217.147-10.819.038a4.35,4.35,0,0,0-4.2,1.9c-.722,1.03-1.506,2.373-3.209,2.028,0,.005,0,.011,0,.016-.1.533.164,1.213.048,1.744a.009.009,0,0,0,0,.005.864.864,0,0,1-.052.158c0,.006,0,.012-.005.017a.909.909,0,0,1-.074.128c-.008.011-.013.022-.021.033a.935.935,0,0,1-.1.1c-.015.014-.024.028-.04.041a1.1,1.1,0,0,1-.121.081c-.023.014-.041.03-.066.044-.041.021-.092.038-.139.058s-.066.031-.106.044-.112.029-.17.043-.087.025-.138.034c-.114.021-.239.039-.378.051-.677.059-.543,1.862-.1,2.712.369.715,1.31.538,1.917.1a3.161,3.161,0,0,0,1.234-1.438,3.738,3.738,0,0,1,.226-.617,68.111,68.111,0,0,1,.269-.424,1.074,1.074,0,0,1,.184-.152,1.338,1.338,0,0,1,.125-.1.89.89,0,0,1,.24-.074c.035-.008.067-.027.1-.032a1.2,1.2,0,0,1,.285.015c.031,0,.06,0,.092.005a2.279,2.279,0,0,1,.33.1c.025.01.049.013.073.022a4.055,4.055,0,0,1,.374.178c.019.01.035.016.054.025.146.079.295.167.446.262-.379-1.325.455-1.948,1.43-2.534.6-.364,2.383.381,1.479-1.577-.12-.26,1.063-.435,1.268.175a1.869,1.869,0,0,0,2.809,1.12c1.985-1.189,1.987.765,2.333,1.439.624,1.218-.543,1.519-1.488,1.738a.3.3,0,0,0-.075.364c-.255.911.763,2.245-.893,2.69l-.032.149a8.637,8.637,0,0,1-.928,5.034c-.051.1-.111.2-.165.308-.1.2-.206.4-.32.6-.346.6-.733,1.179-1.142,1.754.612,3.044-.722,4.987-3.467,6.133l-.009.013c-.023.375-.117.7-.55.76h0c.45,2.148-.873,2.685-2.6,2.7-3.846.043-7.692.013-11.539.015-.242,0-.463,0-.674.006s-.416.012-.6.022a5.652,5.652,0,0,0-.982.123l-.036.008c-.081.021-.152.046-.224.072-.021.008-.048.014-.068.021-.047.02-.087.044-.13.065s-.081.037-.117.06-.056.045-.085.066a1.1,1.1,0,0,0-.12.094c-.021.021-.038.047-.059.068a1.248,1.248,0,0,0-.109.13.5.5,0,0,0-.028.05,6.173,6.173,0,0,0-.472,2.763c.657-.191.752-.87,1.226-1.446.023-.028.043-.058.068-.086a1.948,1.948,0,0,1,.265-.243c-.214,2.913,1.657,2.65,3.486,2.608,2.679-.062,5.36-.01,8.041-.018,2.344-.008,4.722.238,6.927-.876a.189.189,0,0,0,.182-.228c.17-.2.34-.4.51-.6l.336-.4a3.57,3.57,0,0,1-.11-.553,2.139,2.139,0,0,1-.007-.389c0-.024,0-.055,0-.078.082-.837.74-1.191,1.866-1.156.02,0,.035,0,.055,0,0,0,0-.006,0-.009a.71.71,0,0,1,.769-.912c.019,0,.03-.008.05-.008,0-.008,0-.013,0-.021a.777.777,0,0,1,.813-.894l.016-.018C600.243,255.474,600.41,255.152,600.9,255.116Zm8.4-22.579c.085-.033.23.086.35.137h0a0,0,0,0,0,0,0c-.054.12-.08.3-.166.339s-.23-.086-.35-.138C609.187,232.757,609.212,232.571,609.3,232.537Zm-1.507,25.376a.452.452,0,0,1-.435.587c-.7.1-1.024-.321-1.244-.886-.169-.431.024-.738.441-.718C607.187,256.928,607.4,257.563,607.792,257.913Zm-.91-14.867c.084.037.1.224.15.345h0c-.122.047-.272.159-.355.122s-.1-.225-.151-.346C606.646,243.121,606.8,243.009,606.882,243.046Zm-1.093-12.223c.085-.034.23.085.35.137-.053.119-.079.3-.165.339a.107.107,0,0,1-.073,0,2.279,2.279,0,0,1-.276-.137h0a0,0,0,0,0,0,0C605.676,231.042,605.7,230.857,605.789,230.823Zm.163,17.545c.169.06.3.433.316.673.02.257-.056.652-.447.525-.189-.063-.287-.4-.376-.541C605.559,248.631,605.562,248.232,605.952,248.368ZM604.9,233.416l.358.153c-.052.119-.077.306-.162.338s-.231-.083-.351-.135C604.794,233.653,604.846,233.535,604.9,233.416Zm-12.715,1.309c-.13-.106-.154-.365-.178-.563-.005-.041.2-.106.361-.187.088.178.245.354.245.529A.26.26,0,0,1,592.182,234.725Zm10.358-2.745c-.059.17-.433.3-.673.316-.257.02-.653-.056-.524-.447.062-.188.4-.286.54-.376C602.277,231.587,602.676,231.591,602.54,231.98Zm.848,22.42c.085.037.1.224.151.345-.122.048-.272.159-.356.122s-.1-.224-.15-.345C603.153,254.476,603.3,254.363,603.388,254.4Zm-7.883,3.958c-.119-.052-.306-.077-.339-.161s.084-.232.135-.351l.357.154C595.606,258.12,595.556,258.239,595.505,258.358Z" fill="#f9fdfa"/>
    <rect id="Rectangle_216" data-name="Rectangle 216" transform="translate(599.368 256.836)" fill="#f9fdfa"/>
    <rect id="Rectangle_217" data-name="Rectangle 217" transform="translate(598.55 257.765)" fill="#f9fdfa"/>
    <rect id="Rectangle_218" data-name="Rectangle 218" width="0.001" height="0.001" transform="translate(608.162 252.347)" fill="#f9fdfa"/>
    <path id="Path_568" data-name="Path 568" d="M600.9,255.116h0c.52-.063.746.357,1.056.641C601.646,255.474,601.42,255.053,600.9,255.116Z" fill="#f9fdfa"/>
    <path id="Path_569" data-name="Path 569" d="M575.706,261.232l-.006,0Z" fill="#f9fdfa"/>
    <path id="Path_570" data-name="Path 570" d="M593.506,254.976l.013,0h0Z" fill="#f9fdfa"/>
    <path id="Path_571" data-name="Path 571" d="M614.005,233.406c-.048-.1-.1-.193-.145-.291h0C613.908,233.213,613.956,233.309,614.005,233.406Z" fill="#f9fdfa"/>
    <path id="Path_572" data-name="Path 572" d="M612.761,229.212a6.014,6.014,0,0,0,5.8-6.117,5.944,5.944,0,0,0-11.885.292A6.016,6.016,0,0,0,612.761,229.212Z" fill="#f5faf7"/>
    <path id="Path_573" data-name="Path 573" d="M613.379,239.512c-.029.027.183.317.271.466.962-.069.86-2.017,1.927-1.235.771.565.514,1.7-.209,2.507-.3.33-.1.688.092,1a2.611,2.611,0,0,0,4.766-.091c.3-.531.522-1.335,1.11-.94,1.1.736,1.947.073,2.9-.13-1.592-.054-3.19-.221-4.774-.129a2.465,2.465,0,0,1-2.932-1.857c-.631-1.842-1.567-3.579-2.371-5.361C613.82,235.647,615.253,237.8,613.379,239.512Z" fill="#f5faf7"/>
    <path id="Path_574" data-name="Path 574" d="M613.374,258.514l-.015-.01c0,.01,0,.021,0,.031.271.927-1.043,2.168-.4,2.4,1.938.706,1.146,2.137,1.188,3.259.107,2.815-.051,5.642.067,8.456.071,1.685-.432,2.616-2.2,2.65-.063,0-.122.221-.157.288.084.7,1.18.153,1.159,1.14l-3.143.372a2.493,2.493,0,0,0,3.272.807,2.718,2.718,0,0,0,1.722-2.776c.018-4.648,0-9.3.027-13.946a3.456,3.456,0,0,0-.025-.439c-.007-.053-.021-.1-.03-.152-.016-.085-.027-.171-.05-.251-.017-.063-.042-.121-.063-.182s-.04-.13-.066-.19-.072-.143-.11-.212c-.023-.043-.042-.088-.067-.129-.055-.089-.117-.173-.181-.257-.015-.019-.025-.039-.04-.057a3.327,3.327,0,0,0-.259-.287l0,0a4.656,4.656,0,0,0-.635-.521A.049.049,0,0,0,613.374,258.514Z" fill="#f5faf7"/>
    <path id="Path_575" data-name="Path 575" d="M614,259.025a4.641,4.641,0,0,0-.635-.521h0A4.8,4.8,0,0,1,614,259.025Z" fill="#f5faf7"/>
    <path id="Path_576" data-name="Path 576" d="M614.3,259.373c.063.084.126.168.181.257C614.43,259.541,614.367,259.457,614.3,259.373Z" fill="#f5faf7"/>
    <path id="Path_577" data-name="Path 577" d="M614.842,260.594c.01.051.023.1.03.152C614.865,260.693,614.852,260.645,614.842,260.594Z" fill="#f5faf7"/>
    <path id="Path_578" data-name="Path 578" d="M614.552,259.759c.038.069.078.139.11.212C614.63,259.9,614.59,259.828,614.552,259.759Z" fill="#f5faf7"/>
    <path id="Path_579" data-name="Path 579" d="M614.005,259.029a3.467,3.467,0,0,1,.259.287A3.472,3.472,0,0,0,614.005,259.029Z" fill="#f5faf7"/>
    <path id="Path_580" data-name="Path 580" d="M614.729,260.161c.021.061.047.118.063.182C614.775,260.279,614.75,260.222,614.729,260.161Z" fill="#f5faf7"/>
    <path id="Path_581" data-name="Path 581" d="M613.359,258.5c0,.011,0,.022,0,.032,0-.01,0-.021,0-.032Z" fill="#f5faf7"/>
    <path id="Path_582" data-name="Path 582" d="M576.18,258.469c.01-.016.018-.035.028-.05a1.131,1.131,0,0,1,.109-.13c.021-.022.037-.048.059-.068a1.244,1.244,0,0,1,.12-.094c.029-.021.054-.047.085-.066s.078-.039.117-.06.083-.046.13-.065c.021-.008.047-.014.068-.021a2.1,2.1,0,0,1,.224-.072l.036-.008a5.678,5.678,0,0,1,.982-.123c.186-.011.385-.019.6-.022s.432-.006.674-.006c3.847,0,7.693.028,11.539-.015,1.723-.02,3.046-.556,2.595-2.7a.1.1,0,0,0-.029.008c-1.1,1.625-2.612,2.034-4.56,1.941-3.537-.169-7.089-.1-10.634-.031-2.679.051-3.75,1.9-2.619,4.351h0A6.157,6.157,0,0,1,576.18,258.469Z" fill="#f5faf7"/>
    <rect id="Rectangle_219" data-name="Rectangle 219" height="0.001" transform="translate(593.548 254.963)" fill="#f5faf7"/>
    <rect id="Rectangle_220" data-name="Rectangle 220" width="0.001" transform="translate(575.708 261.232)" fill="#f5faf7"/>
    <path id="Path_583" data-name="Path 583" d="M576.317,258.289a1.131,1.131,0,0,0-.109.13A1.248,1.248,0,0,1,576.317,258.289Z" fill="#f5faf7"/>
    <path id="Path_584" data-name="Path 584" d="M593.548,254.964c-.012,0-.018.007-.029.008h0a.1.1,0,0,1,.029-.008Z" fill="#f5faf7"/>
    <path id="Path_585" data-name="Path 585" d="M576.7,258c-.039.021-.081.037-.117.06C576.617,258.038,576.659,258.021,576.7,258Z" fill="#f5faf7"/>
    <path id="Path_586" data-name="Path 586" d="M575.708,261.231a6.177,6.177,0,0,1,.472-2.763,6.162,6.162,0,0,0-.472,2.763Z" fill="#f5faf7"/>
    <path id="Path_587" data-name="Path 587" d="M578.74,257.688c-.217,0-.416.012-.6.022C578.324,257.7,578.523,257.692,578.74,257.688Z" fill="#f5faf7"/>
    <path id="Path_588" data-name="Path 588" d="M576.376,258.221a1.244,1.244,0,0,1,.12-.094A1.109,1.109,0,0,0,576.376,258.221Z" fill="#f5faf7"/>
    <path id="Path_589" data-name="Path 589" d="M590.953,257.668c1.723-.02,3.046-.556,2.6-2.7h0C594,257.112,592.676,257.648,590.953,257.668Z" fill="#f5faf7"/>
    <rect id="Rectangle_221" data-name="Rectangle 221" width="0.001" height="0.002" transform="translate(575.707 261.231)" fill="#f5faf7"/>
    <path id="Path_590" data-name="Path 590" d="M577.156,257.834l-.036.008Z" fill="#f5faf7"/>
    <path id="Path_591" data-name="Path 591" d="M576.9,257.914c-.021.008-.048.014-.068.021C576.849,257.928,576.875,257.922,576.9,257.914Z" fill="#f5faf7"/>
    <path id="Path_592" data-name="Path 592" d="M609.82,276.989c.2-3.612-.209-7.222.331-10.854a6.011,6.011,0,0,0-4.621-6.736,7.561,7.561,0,0,0,1.108,1.316,6.285,6.285,0,0,1,2.476,6.063c-.208,2.521-.055,5.073-.038,7.611,0,.116,0,.233,0,.35A2.538,2.538,0,0,0,609.82,276.989Z" fill="#f5faf7"/>
    <path id="Path_593" data-name="Path 593" d="M593.31,236.811l0,0c0-.006,0-.01,0-.016-.151-.1-.3-.183-.446-.262-.019-.01-.035-.016-.054-.025-.127-.066-.252-.129-.374-.178-.024-.01-.048-.013-.073-.022a2.28,2.28,0,0,0-.33-.1c-.032-.006-.061,0-.092-.005a1.254,1.254,0,0,0-.285-.015c-.036.005-.068.024-.1.032a.927.927,0,0,0-.24.074,170.116,170.116,0,0,0-.309.255,1.739,1.739,0,0,0-.149.234,1.885,1.885,0,0,0-.12.19,3.829,3.829,0,0,0-.226.617,3.156,3.156,0,0,1-1.234,1.438c-.607.443-1.548.62-1.917-.1-.438-.85-.572-2.653.1-2.712a3.657,3.657,0,0,0,.378-.051c.051-.009.091-.022.138-.034s.119-.026.17-.043.07-.029.106-.044.1-.037.139-.058c.025-.014.043-.03.066-.044a1.106,1.106,0,0,0,.121-.081c.016-.013.025-.027.04-.041a.866.866,0,0,0,.1-.1c.008-.011.013-.022.021-.033a.817.817,0,0,0,.074-.128c0-.005,0-.011.005-.017a.977.977,0,0,0,.052-.158.009.009,0,0,1,0-.005c.116-.531-.152-1.211-.048-1.744,0-.005,0-.011,0-.016H588.8l0-.005c-.107.1-.219.2-.329.3-.088.08-.175.161-.264.24-.2.178-.4.354-.6.534-.078.071-.151.146-.228.218-.119.111-.239.221-.354.336-.187.189-.366.386-.533.592a2.587,2.587,0,0,0,.15,3.715,2.632,2.632,0,0,0,3.877.212A34.622,34.622,0,0,0,593.31,236.811Z" fill="#f5faf7"/>
    <path id="Path_594" data-name="Path 594" d="M587.616,234.7c.2-.18.4-.356.6-.534C588.014,234.34,587.813,234.517,587.616,234.7Z" fill="#f5faf7"/>
    <path id="Path_595" data-name="Path 595" d="M587.035,235.25c.114-.115.234-.225.354-.336C587.27,235.025,587.149,235.135,587.035,235.25Z" fill="#f5faf7"/>
    <path id="Path_596" data-name="Path 596" d="M593.31,236.811l0,0-.007.005Z" fill="#f5faf7"/>
    <path id="Path_597" data-name="Path 597" d="M588.806,233.622c-.107.1-.219.2-.329.3.11-.1.221-.2.329-.3Z" fill="#f5faf7"/>
    <path id="Path_598" data-name="Path 598" d="M591.648,236.191a1.2,1.2,0,0,1,.285.015A1.252,1.252,0,0,0,591.648,236.191Z" fill="#f5faf7"/>
    <path id="Path_599" data-name="Path 599" d="M588.862,235.388a.009.009,0,0,0,0,.005A.009.009,0,0,1,588.862,235.388Z" fill="#f5faf7"/>
    <path id="Path_600" data-name="Path 600" d="M588.451,235.953c-.023.014-.041.03-.066.044C588.41,235.983,588.428,235.967,588.451,235.953Z" fill="#f5faf7"/>
    <path id="Path_601" data-name="Path 601" d="M588.246,236.055c-.036.015-.066.031-.106.044C588.18,236.086,588.21,236.069,588.246,236.055Z" fill="#f5faf7"/>
    <path id="Path_602" data-name="Path 602" d="M588.612,235.831c-.015.014-.024.028-.04.041A.51.51,0,0,0,588.612,235.831Z" fill="#f5faf7"/>
    <path id="Path_603" data-name="Path 603" d="M587.97,236.142c-.047.012-.087.025-.138.034C587.883,236.167,587.923,236.153,587.97,236.142Z" fill="#f5faf7"/>
    <path id="Path_604" data-name="Path 604" d="M591.3,236.3a.89.89,0,0,1,.24-.074A.89.89,0,0,0,591.3,236.3Z" fill="#f5faf7"/>
    <path id="Path_605" data-name="Path 605" d="M588.73,235.7c-.008.011-.013.022-.021.033A.225.225,0,0,0,588.73,235.7Z" fill="#f5faf7"/>
    <path id="Path_606" data-name="Path 606" d="M590.727,236.978a1.885,1.885,0,0,1,.12-.19A1.777,1.777,0,0,0,590.727,236.978Z" fill="#f5faf7"/>
    <path id="Path_607" data-name="Path 607" d="M591,236.553a1.074,1.074,0,0,1,.184-.152A.99.99,0,0,0,591,236.553Z" fill="#f5faf7"/>
    <path id="Path_608" data-name="Path 608" d="M588.81,235.551c0,.006,0,.012-.005.017S588.808,235.557,588.81,235.551Z" fill="#f5faf7"/>
    <path id="Path_609" data-name="Path 609" d="M592.025,236.211a2.279,2.279,0,0,1,.33.1A2.131,2.131,0,0,0,592.025,236.211Z" fill="#f5faf7"/>
    <path id="Path_610" data-name="Path 610" d="M593.3,236.8c-.151-.1-.3-.183-.446-.262.145.079.294.167.446.262Z" fill="#f5faf7"/>
    <path id="Path_611" data-name="Path 611" d="M588.814,233.644l0-.016h0Z" fill="#f5faf7"/>
    <path id="Path_612" data-name="Path 612" d="M592.429,236.333a4.055,4.055,0,0,1,.374.178A4.063,4.063,0,0,0,592.429,236.333Z" fill="#f5faf7"/>
    <path id="Path_613" data-name="Path 613" d="M588.819,233.609a.12.12,0,0,1,0,.019c1.7.345,2.487-1,3.209-2.028a4.351,4.351,0,0,1,4.2-1.9c3.6.109,7.213-.012,10.819-.038a3.017,3.017,0,0,0-2.188-.764,33.645,33.645,0,0,1-5.646-.044c-4.512-.729-7.8.991-10.326,4.576a.837.837,0,0,0-.078.2Z" fill="#f5faf7"/>
    <path id="Path_614" data-name="Path 614" d="M588.884,233.425a.837.837,0,0,0-.078.2h0A.82.82,0,0,1,588.884,233.425Z" fill="#f5faf7"/>
    <path id="Path_615" data-name="Path 615" d="M588.816,233.628h0c1.7.345,2.487-1,3.209-2.028C591.3,232.63,590.52,233.973,588.816,233.628Z" fill="#f5faf7"/>
    <path id="Path_616" data-name="Path 616" d="M588.816,233.628a.12.12,0,0,0,0-.019.121.121,0,0,1,0,.019Z" fill="#f5faf7"/>
    <path id="Path_617" data-name="Path 617" d="M588.806,233.622h0l.013-.013Z" fill="#f5faf7"/>
    <path id="Path_618" data-name="Path 618" d="M588.806,233.622l0,.005Z" fill="#f5faf7"/>
    <path id="Path_619" data-name="Path 619" d="M588.8,233.627h.012Z" fill="#f5faf7"/>
    <rect id="Rectangle_222" data-name="Rectangle 222" transform="translate(588.806 233.622)" fill="#f5faf7"/>
    <path id="Path_620" data-name="Path 620" d="M588.806,233.622l0,.005.015-.018Z" fill="#f5faf7"/>
    <path id="Path_621" data-name="Path 621" d="M588.819,233.609l-.016.018h.013A.121.121,0,0,0,588.819,233.609Z" fill="#f5faf7"/>
    <rect id="Rectangle_223" data-name="Rectangle 223" transform="translate(588.816 233.628)" fill="#f5faf7"/>
    <path id="Path_622" data-name="Path 622" d="M602.62,235.421c-.346-.675-.348-2.629-2.333-1.439a1.87,1.87,0,0,1-2.809-1.12c-.205-.609-1.388-.435-1.268-.175.9,1.958-.874,1.213-1.479,1.577-.975.586-1.809,1.209-1.43,2.534l.012.007a0,0,0,0,1,0,0,8.107,8.107,0,0,1,1.843-1.453c.02-.011.041-.018.061-.028a6.1,6.1,0,0,1,.614-.3c.124-.052.256-.089.385-.132.109-.037.215-.081.327-.112a6.33,6.33,0,0,1,.627-.13c.043-.007.085-.021.129-.026a7.339,7.339,0,0,1,1.661-.041c2.673.221,2.688.04,2.172,2.574C602.077,236.939,603.244,236.639,602.62,235.421Z" fill="#f5faf7"/>
    <path id="Path_623" data-name="Path 623" d="M596.216,234.9c-.129.043-.261.08-.385.132C595.955,234.975,596.087,234.938,596.216,234.9Z" fill="#f5faf7"/>
    <path id="Path_624" data-name="Path 624" d="M597.17,234.652a6.326,6.326,0,0,0-.627.13C596.746,234.728,596.957,234.688,597.17,234.652Z" fill="#f5faf7"/>
    <path id="Path_625" data-name="Path 625" d="M595.217,235.324c-.02.011-.041.018-.061.028C595.176,235.342,595.2,235.335,595.217,235.324Z" fill="#f5faf7"/>
    <path id="Path_626" data-name="Path 626" d="M593.313,236.806h0v0Z" fill="#f5faf7"/>
    <path id="Path_627" data-name="Path 627" d="M597.3,234.626a7.339,7.339,0,0,1,1.661-.041A7.335,7.335,0,0,0,597.3,234.626Z" fill="#f5faf7"/>
    <path id="Path_628" data-name="Path 628" d="M594.732,234.264c-.975.586-1.809,1.209-1.43,2.534h0C592.924,235.473,593.758,234.85,594.732,234.264Z" fill="#f5faf7"/>
    <path id="Path_629" data-name="Path 629" d="M593.3,236.8c0,.006,0,.01,0,.016s0-.01,0-.016Z" fill="#f5faf7"/>
    <path id="Path_630" data-name="Path 630" d="M593.314,236.8l-.011-.007h0Z" fill="#f5faf7"/>
    <path id="Path_631" data-name="Path 631" d="M593.313,236.808v0l-.008.008Z" fill="#f5faf7"/>
    <rect id="Rectangle_224" data-name="Rectangle 224" transform="translate(593.303 236.798)" fill="#f5faf7"/>
    <path id="Path_632" data-name="Path 632" d="M593.306,236.813l.009-.009-.012-.007C593.3,236.8,593.3,236.808,593.306,236.813Z" fill="#f5faf7"/>
    <path id="Path_633" data-name="Path 633" d="M588.794,262.047c-2.681.008-5.362-.044-8.041.018-1.829.042-3.7.3-3.486-2.608a1.888,1.888,0,0,0-.265.243c-.025.027-.045.058-.068.086-.474.576-.568,1.255-1.226,1.446v.006l-.008,0c.587,1.459,1.875,1.377,3.1,1.38,4.772.01,9.546-.044,14.317.028a2.5,2.5,0,0,0,2.6-1.473C593.516,262.285,591.138,262.039,588.794,262.047Z" fill="#f5faf7"/>
    <path id="Path_634" data-name="Path 634" d="M576.934,259.785c.023-.028.043-.059.068-.086C576.977,259.728,576.957,259.757,576.934,259.785Z" fill="#f5faf7"/>
    <path id="Path_635" data-name="Path 635" d="M575.706,261.232l-.006,0,.008,0Z" fill="#f5faf7"/>
    <path id="Path_636" data-name="Path 636" d="M575.708,261.237v-.006h0Z" fill="#f5faf7"/>
    <path id="Path_637" data-name="Path 637" d="M575.706,261.232l0,.005v-.005Z" fill="#f5faf7"/>
    <path id="Path_638" data-name="Path 638" d="M619.431,246.41c-1.921-.168-3.558-.114-3.935-2.768-.462,1.7-1.078,1.912-2.021.719a3.345,3.345,0,0,0-.87-.574c.688,1.066.538,2.858,2.462,2.854,2.9-.007,5.807.026,8.707-.049,1.282-.032,2.453-.424,2.623-2.011A12.2,12.2,0,0,1,619.431,246.41Z" fill="#f5faf7"/>
    <path id="Path_639" data-name="Path 639" d="M597.577,248.059l0,0a25.264,25.264,0,0,1-3.465,6.13C596.855,253.045,598.189,251.1,597.577,248.059Z" fill="#f5faf7"/>
    <path id="Path_640" data-name="Path 640" d="M597.577,248.058h0c.612,3.044-.722,4.987-3.467,6.133C596.855,253.045,598.189,251.1,597.577,248.058Z" fill="#f5faf7"/>
    <path id="Path_641" data-name="Path 641" d="M597.577,248.058c.408-.576.8-1.158,1.142-1.754.114-.2.217-.4.32-.6.055-.1.114-.2.165-.308a8.644,8.644,0,0,0,.928-5.034,39.769,39.769,0,0,0-2.558,7.7l0,0Z" fill="#f5faf7"/>
    <path id="Path_642" data-name="Path 642" d="M597.574,248.063v0h0Z" fill="#f5faf7"/>
    <path id="Path_643" data-name="Path 643" d="M597.577,248.058c.408-.575.8-1.158,1.142-1.754-.346.6-.734,1.177-1.142,1.754Z" fill="#f5faf7"/>
    <path id="Path_644" data-name="Path 644" d="M599.2,245.4c-.051.1-.11.2-.165.308C599.093,245.6,599.153,245.5,599.2,245.4Z" fill="#f5faf7"/>
    <path id="Path_645" data-name="Path 645" d="M597.577,248.057l0,.006,0,0Z" fill="#f5faf7"/>
    <rect id="Rectangle_225" data-name="Rectangle 225" width="0.002" height="0.001" transform="translate(597.575 248.058)" fill="#f5faf7"/>
    <path id="Path_646" data-name="Path 646" d="M597.577,248.057h0Z" fill="#f5faf7"/>
    <path id="Path_647" data-name="Path 647" d="M597.576,248.06v0h0Z" fill="#f5faf7"/>
    <rect id="Rectangle_226" data-name="Rectangle 226" width="0.001" height="0.001" transform="translate(597.577 248.057)" fill="#f5faf7"/>
    <path id="Path_648" data-name="Path 648" d="M613.278,242.26a.642.642,0,0,0,0-.482.985.985,0,0,0-.162-.271,2.8,2.8,0,0,0-2.344-.726c-.929.047-.945.908-.952,1.643,0,.572,0,1.144,0,1.715.667-.763.506-1.991,1.406-2.7.446.683.827,1.265,1.208,1.845C612.693,242.953,613.134,242.636,613.278,242.26Z" fill="#f5faf7"/>
    <path id="Path_649" data-name="Path 649" d="M612.432,243.285c.262-.332.7-.649.847-1.025-.145.376-.586.693-.847,1.025Z" fill="#f5faf7"/>
    <path id="Path_650" data-name="Path 650" d="M613.278,242.26a.642.642,0,0,0,0-.482A.638.638,0,0,1,613.278,242.26Z" fill="#f5faf7"/>
    <path id="Path_651" data-name="Path 651" d="M607.275,248.091a2.053,2.053,0,0,1,.033.271v0a2.487,2.487,0,0,1,0,.274v.005c-.067,1.213-.845,2.594.489,3.493l.015.011a3.038,3.038,0,0,0,.292.165c.021.011.038.022.06.032,0,0,0-.005,0-.008a.1.1,0,0,1,.013.009c-.021-.03-.033-.06-.052-.089a2.875,2.875,0,0,1-.153-.263c-.01-.02-.016-.038-.024-.057a2.473,2.473,0,0,1-.117-.289c0-.008,0-.016-.006-.023-.38-1.212.341-2.285.754-3.4.009-.025.02-.051.029-.076.021-.058.037-.115.056-.172s.032-.1.045-.143c.024-.085.044-.171.063-.257,0-.021.011-.04.015-.061a2.939,2.939,0,0,0,.044-.322C608.151,247.251,607.077,247.083,607.275,248.091Z" fill="#f5faf7"/>
    <path id="Path_652" data-name="Path 652" d="M607.946,251.939c.009.019.015.037.024.057C607.961,251.977,607.956,251.958,607.946,251.939Z" fill="#f5faf7"/>
    <path id="Path_653" data-name="Path 653" d="M607.823,251.627a.157.157,0,0,0,.006.023A.157.157,0,0,1,607.823,251.627Z" fill="#f5faf7"/>
    <path id="Path_654" data-name="Path 654" d="M608.707,247.838c-.013.047-.03.1-.045.143C608.677,247.933,608.694,247.885,608.707,247.838Z" fill="#f5faf7"/>
    <path id="Path_655" data-name="Path 655" d="M608.784,247.521c0,.021-.011.04-.015.061C608.773,247.561,608.78,247.541,608.784,247.521Z" fill="#f5faf7"/>
    <path id="Path_656" data-name="Path 656" d="M608.606,248.152c-.01.025-.021.051-.029.076C608.586,248.2,608.6,248.178,608.606,248.152Z" fill="#f5faf7"/>
    <path id="Path_657" data-name="Path 657" d="M608.176,252.348c-.02-.03-.033-.06-.052-.089.019.029.031.058.052.089Z" fill="#f5faf7"/>
    <path id="Path_658" data-name="Path 658" d="M607.307,248.646c-.067,1.213-.845,2.594.489,3.493C606.462,251.239,607.239,249.858,607.307,248.646Z" fill="#f5faf7"/>
    <path id="Path_659" data-name="Path 659" d="M607.275,248.091a1.892,1.892,0,0,1,.033.271A1.9,1.9,0,0,0,607.275,248.091Z" fill="#f5faf7"/>
    <path id="Path_660" data-name="Path 660" d="M607.307,248.641a2.521,2.521,0,0,0,0-.274A2.521,2.521,0,0,1,607.307,248.641Z" fill="#f5faf7"/>
    <path id="Path_661" data-name="Path 661" d="M608.1,252.314a3.038,3.038,0,0,1-.292-.165A2.633,2.633,0,0,0,608.1,252.314Z" fill="#f5faf7"/>
    <path id="Path_662" data-name="Path 662" d="M608.163,252.339v.008h0Z" fill="#f5faf7"/>
    <path id="Path_663" data-name="Path 663" d="M609.716,254.879c.013.059.04.1.056.16a3.279,3.279,0,0,0,.2.578c.028.058.071.1.1.159a3.485,3.485,0,0,0,.3.46c.036.045.082.081.12.124a4.538,4.538,0,0,0,.392.4c.03.026.065.05.1.076.659.561,1.455,1.007,2.173,1.519.067.048.138.093.2.143,0,0,0,0,0-.006l.009.007a19.243,19.243,0,0,0-1.745-2.354c-.634-.741-1.308-1.45-1.988-2.153A3.669,3.669,0,0,0,609.716,254.879Z" fill="#f5faf7"/>
    <path id="Path_664" data-name="Path 664" d="M613.367,258.5a19.243,19.243,0,0,0-1.745-2.354,19.142,19.142,0,0,1,1.745,2.354Z" fill="#f5faf7"/>
    <path id="Path_665" data-name="Path 665" d="M610.494,256.36c-.038-.043-.084-.079-.12-.124C610.41,256.281,610.456,256.317,610.494,256.36Z" fill="#f5faf7"/>
    <path id="Path_666" data-name="Path 666" d="M610.982,256.842c-.031-.026-.066-.05-.1-.076C610.916,256.792,610.951,256.815,610.982,256.842Z" fill="#f5faf7"/>
    <path id="Path_667" data-name="Path 667" d="M609.771,255.039c-.016-.056-.043-.1-.056-.16C609.729,254.938,609.756,254.983,609.771,255.039Z" fill="#f5faf7"/>
    <path id="Path_668" data-name="Path 668" d="M613.155,258.36c.067.048.138.094.2.143h0C613.293,258.453,613.223,258.408,613.155,258.36Z" fill="#f5faf7"/>
    <path id="Path_669" data-name="Path 669" d="M610.076,255.776c-.031-.056-.074-.1-.1-.159C610,255.675,610.045,255.721,610.076,255.776Z" fill="#f5faf7"/>
    <path id="Path_670" data-name="Path 670" d="M613.358,258.5v.006h0Z" fill="#f5faf7"/>
    <path id="Path_671" data-name="Path 671" d="M613.367,258.5h0l.007.01Z" fill="#f5faf7"/>
    <path id="Path_672" data-name="Path 672" d="M613.367,258.5l-.009-.007Z" fill="#f5faf7"/>
    <path id="Path_673" data-name="Path 673" d="M613.359,258.5l.015.01-.015-.011Z" fill="#f5faf7"/>
    <rect id="Rectangle_227" data-name="Rectangle 227" transform="translate(613.367 258.504)" fill="#f5faf7"/>
    <path id="Path_674" data-name="Path 674" d="M613.367,258.5l-.009-.007.016.017Z" fill="#f5faf7"/>
    <rect id="Rectangle_228" data-name="Rectangle 228" transform="translate(613.359 258.503)" fill="#f5faf7"/>
    <path id="Path_675" data-name="Path 675" d="M613.374,258.514l-.016-.017v.006Z" fill="#f5faf7"/>
    <path id="Path_676" data-name="Path 676" d="M612.086,231.447a17.2,17.2,0,0,0-4.884-1.773C608.063,232.377,610.312,231.258,612.086,231.447Z" fill="#f5faf7"/>
    <path id="Path_677" data-name="Path 677" d="M602.308,255.972a20.174,20.174,0,0,0,3.176,3.38A3.409,3.409,0,0,0,602.308,255.972Z" fill="#f5faf7"/>
    <path id="Path_678" data-name="Path 678" d="M598.55,257.78c0-.006,0-.01,0-.016-.02,0-.036,0-.055,0-1.125-.035-1.784.319-1.866,1.156,0,.023,0,.054,0,.078a2.133,2.133,0,0,0,.007.389,3.832,3.832,0,0,0,.11.553,6.248,6.248,0,0,0,1.728-2.009c.026-.055.062-.1.086-.158Z" fill="#f5faf7"/>
    <path id="Path_679" data-name="Path 679" d="M596.748,259.941a6.248,6.248,0,0,0,1.728-2.009A6.248,6.248,0,0,1,596.748,259.941Z" fill="#f5faf7"/>
    <path id="Path_680" data-name="Path 680" d="M598.562,257.774h0l-.013.006Z" fill="#f5faf7"/>
    <path id="Path_681" data-name="Path 681" d="M596.638,259.389a2.139,2.139,0,0,1-.007-.389A2.139,2.139,0,0,0,596.638,259.389Z" fill="#f5faf7"/>
    <path id="Path_682" data-name="Path 682" d="M598.55,257.765c0,.006,0,.01,0,.016s0-.01,0-.016Z" fill="#f5faf7"/>
    <path id="Path_683" data-name="Path 683" d="M598.495,257.766c-1.126-.035-1.784.319-1.866,1.156C596.711,258.085,597.37,257.73,598.495,257.766Z" fill="#f5faf7"/>
    <path id="Path_684" data-name="Path 684" d="M601.057,237.523a4.858,4.858,0,0,0-.893,2.69C601.819,239.769,600.8,238.435,601.057,237.523Z" fill="#f5faf7"/>
    <path id="Path_685" data-name="Path 685" d="M608.177,252.349l.006.01a.213.213,0,0,0-.021-.011c-.018.2-.035.4-.048.591,0,.059-.009.12-.011.178s.005.1.006.154,0,.134.008.194c.006.043.021.078.03.118a1.015,1.015,0,0,0,.045.175.671.671,0,0,0,.06.08.527.527,0,0,0,.1.136.511.511,0,0,0,.095.04.57.57,0,0,0,.177.076,1.186,1.186,0,0,0,.133,0,1.265,1.265,0,0,0,.274,0,3.228,3.228,0,0,0,.565-.147A3.877,3.877,0,0,0,608.177,252.349Z" fill="#f5faf7"/>
    <path id="Path_686" data-name="Path 686" d="M609.6,253.938a3.888,3.888,0,0,0-1.422-1.591s0,0,0,0A3.89,3.89,0,0,1,609.6,253.938Z" fill="#f5faf7"/>
    <path id="Path_687" data-name="Path 687" d="M608.162,252.348a.213.213,0,0,1,.021.011.105.105,0,0,0-.021-.011Z" fill="#f5faf7"/>
    <path id="Path_688" data-name="Path 688" d="M608.1,253.116c0-.058.008-.119.011-.178C608.111,253,608.1,253.059,608.1,253.116Z" fill="#f5faf7"/>
    <path id="Path_689" data-name="Path 689" d="M609.032,254.086a1.265,1.265,0,0,1-.274,0A1.265,1.265,0,0,0,609.032,254.086Z" fill="#f5faf7"/>
    <path id="Path_690" data-name="Path 690" d="M608.625,254.09a.581.581,0,0,1-.177-.076A.581.581,0,0,0,608.625,254.09Z" fill="#f5faf7"/>
    <path id="Path_691" data-name="Path 691" d="M608.192,253.758a1.119,1.119,0,0,1-.045-.175A1.112,1.112,0,0,0,608.192,253.758Z" fill="#f5faf7"/>
    <path id="Path_692" data-name="Path 692" d="M608.354,253.974a.55.55,0,0,1-.1-.136A.527.527,0,0,0,608.354,253.974Z" fill="#f5faf7"/>
    <path id="Path_693" data-name="Path 693" d="M608.117,253.465c-.008-.061-.006-.129-.008-.194C608.111,253.336,608.11,253.4,608.117,253.465Z" fill="#f5faf7"/>
    <path id="Path_694" data-name="Path 694" d="M608.176,252.348l-.013-.009Z" fill="#f5faf7"/>
    <path id="Path_695" data-name="Path 695" d="M608.177,252.349h0l.007.01Z" fill="#f5faf7"/>
    <rect id="Rectangle_229" data-name="Rectangle 229" width="0.001" height="0.001" transform="translate(608.175 252.347)" fill="#f5faf7"/>
    <path id="Path_696" data-name="Path 696" d="M608.176,252.348l-.013-.009.02.019Z" fill="#f5faf7"/>
    <path id="Path_697" data-name="Path 697" d="M608.183,252.358l-.02-.02s0,.006,0,.009Z" fill="#f5faf7"/>
    <path id="Path_698" data-name="Path 698" d="M608.992,246.44a3.723,3.723,0,0,0,.824-2.294C608.77,244.634,608.937,245.558,608.992,246.44Z" fill="#f5faf7"/>
    <path id="Path_699" data-name="Path 699" d="M613.314,233.229q.273-.056.545-.114a.133.133,0,0,0-.008-.017l.034.012c-.112-.622-.276-1.2-.8-1.444a1.493,1.493,0,0,0-.65-.127q.435.845.872,1.688Z" fill="#f5faf7"/>
    <rect id="Rectangle_230" data-name="Rectangle 230" height="0.002" transform="translate(613.885 233.109)" fill="#f5faf7"/>
    <path id="Path_700" data-name="Path 700" d="M613.886,233.11Z" fill="#f5faf7"/>
    <path id="Path_701" data-name="Path 701" d="M613.86,233.115h0l.023-.005h0Z" fill="#f5faf7"/>
    <path id="Path_702" data-name="Path 702" d="M613.852,233.1a.133.133,0,0,1,.008.017h0A.1.1,0,0,1,613.852,233.1Z" fill="#f5faf7"/>
    <path id="Path_703" data-name="Path 703" d="M613.886,233.11h0c-.112-.622-.275-1.2-.8-1.444C613.609,231.913,613.773,232.488,613.886,233.11Z" fill="#f5faf7"/>
    <path id="Path_704" data-name="Path 704" d="M613.314,233.229q.273-.056.546-.114h0C613.679,233.154,613.5,233.192,613.314,233.229Z" fill="#f5faf7"/>
    <path id="Path_705" data-name="Path 705" d="M613.886,233.11h0l-.034-.011.032.011Z" fill="#f5faf7"/>
    <rect id="Rectangle_231" data-name="Rectangle 231" width="0.001" transform="translate(613.859 233.115)" fill="#f5faf7"/>
    <path id="Path_706" data-name="Path 706" d="M613.886,233.11Z" fill="#f5faf7"/>
    <path id="Path_707" data-name="Path 707" d="M613.884,233.11l-.032-.012.009.017Z" fill="#f5faf7"/>
    <path id="Path_708" data-name="Path 708" d="M625.933,241.982a1.261,1.261,0,0,0-1.266-.851C624.717,241.969,625.33,241.966,625.933,241.982Z" fill="#f5faf7"/>
    <rect id="Rectangle_232" data-name="Rectangle 232" transform="translate(599.374 256.845)" fill="#f5faf7"/>
    <path id="Path_709" data-name="Path 709" d="M599.37,256.815c0,.008,0,.013,0,.021h.009l0,.01a1.766,1.766,0,0,0,.28-.161c.006-.005.011-.011.018-.016a1.425,1.425,0,0,0,.213-.19c.021-.024.037-.056.058-.082a1.3,1.3,0,0,0,.119-.171,1.409,1.409,0,0,0,.121-.3A.777.777,0,0,0,599.37,256.815Z" fill="#f5faf7"/>
    <path id="Path_710" data-name="Path 710" d="M600.062,256.225a1.3,1.3,0,0,1-.119.171A1.485,1.485,0,0,0,600.062,256.225Z" fill="#f5faf7"/>
    <path id="Path_711" data-name="Path 711" d="M599.374,256.845a1.766,1.766,0,0,0,.28-.161,1.769,1.769,0,0,1-.28.161Z" fill="#f5faf7"/>
    <path id="Path_712" data-name="Path 712" d="M599.885,256.478a1.325,1.325,0,0,1-.213.19A1.483,1.483,0,0,0,599.885,256.478Z" fill="#f5faf7"/>
    <path id="Path_713" data-name="Path 713" d="M599.374,256.845l0-.01Z" fill="#f5faf7"/>
    <path id="Path_714" data-name="Path 714" d="M599.37,256.815a.777.777,0,0,1,.813-.894A.778.778,0,0,0,599.37,256.815Z" fill="#f5faf7"/>
    <path id="Path_715" data-name="Path 715" d="M599.377,256.835h-.009Z" fill="#f5faf7"/>
    <path id="Path_716" data-name="Path 716" d="M599.367,256.849c0-.005,0-.008,0-.013-.019,0-.031.007-.05.008a.711.711,0,0,0-.769.912.028.028,0,0,1,0,.009.107.107,0,0,0,.018,0,.092.092,0,0,0-.005.01c.011,0,.018-.01.028-.014a1.163,1.163,0,0,0,.779-.9c0-.005,0-.009,0-.014Z" fill="#f5faf7"/>
    <path id="Path_717" data-name="Path 717" d="M598.563,257.774l0-.009Z" fill="#f5faf7"/>
    <path id="Path_718" data-name="Path 718" d="M598.591,257.761a1.163,1.163,0,0,0,.779-.9A1.163,1.163,0,0,1,598.591,257.761Z" fill="#f5faf7"/>
    <path id="Path_719" data-name="Path 719" d="M599.318,256.844a.71.71,0,0,0-.769.912A.711.711,0,0,1,599.318,256.844Z" fill="#f5faf7"/>
    <path id="Path_720" data-name="Path 720" d="M598.567,257.765a.107.107,0,0,1-.018,0h.018Z" fill="#f5faf7"/>
    <path id="Path_721" data-name="Path 721" d="M599.368,256.836v0Z" fill="#f5faf7"/>
    <path id="Path_722" data-name="Path 722" d="M598.563,257.774l0-.009-.017.015Z" fill="#f5faf7"/>
    <path id="Path_723" data-name="Path 723" d="M598.55,257.78l.018-.016a.107.107,0,0,1-.018,0C598.551,257.771,598.549,257.774,598.55,257.78Z" fill="#f5faf7"/>
    <path id="Path_724" data-name="Path 724" d="M599.374,256.845h0l-.007,0Z" fill="#f5faf7"/>
    <path id="Path_725" data-name="Path 725" d="M599.374,256.845l0-.01-.01.014Z" fill="#f5faf7"/>
    <path id="Path_726" data-name="Path 726" d="M599.367,256.849l.01-.014h-.009Z" fill="#f5faf7"/>
    <path id="Path_727" data-name="Path 727" d="M600.2,255.9c.233-.263.468-.525.7-.788C600.41,255.152,600.243,255.474,600.2,255.9Z" fill="#f5faf7"/>
    <path id="Path_728" data-name="Path 728" d="M593.548,254.964h0c.433-.063.526-.384.55-.76a.843.843,0,0,0-.234.127,1.031,1.031,0,0,0-.361.645l.039-.037C593.547,254.947,593.546,254.954,593.548,254.964Z" fill="#f5faf7"/>
    <path id="Path_729" data-name="Path 729" d="M593.506,254.975h0l.039-.038Z" fill="#f5faf7"/>
    <path id="Path_730" data-name="Path 730" d="M593.552,254.963c.433-.062.526-.385.55-.76C594.078,254.579,593.984,254.9,593.552,254.963Z" fill="#f5faf7"/>
    <path id="Path_731" data-name="Path 731" d="M593.545,254.938l-.039.038c.005,0,.008,0,.013,0S593.536,254.95,593.545,254.938Z" fill="#f5faf7"/>
    <path id="Path_732" data-name="Path 732" d="M593.545,254.938c0,.01,0,.017,0,.026h0C593.546,254.954,593.547,254.947,593.545,254.938Z" fill="#f5faf7"/>
    <path id="Path_733" data-name="Path 733" d="M593.519,254.972c.012,0,.018-.007.029-.008s0-.017,0-.026C593.536,254.95,593.527,254.959,593.519,254.972Z" fill="#f5faf7"/>
    <path id="Path_734" data-name="Path 734" d="M606.113,257.614c.22.564.54.99,1.244.886a.452.452,0,0,0,.435-.587c-.388-.351-.6-.985-1.237-1.017C606.138,256.876,605.944,257.184,606.113,257.614Z" fill="#f5faf7"/>
    <path id="Path_735" data-name="Path 735" d="M601.343,231.85c-.129.392.268.467.524.447.24-.018.614-.146.673-.316.136-.39-.263-.394-.657-.507C601.744,231.563,601.4,231.661,601.343,231.85Z" fill="#f5faf7"/>
    <path id="Path_736" data-name="Path 736" d="M605.821,249.566c.392.127.467-.269.447-.525-.019-.24-.147-.613-.316-.673-.391-.136-.394.263-.507.657C605.534,249.164,605.632,249.5,605.821,249.566Z" fill="#f5faf7"/>
    <path id="Path_737" data-name="Path 737" d="M592,234.162c.023.2.048.456.178.563a.26.26,0,0,0,.429-.22c0-.176-.157-.352-.245-.529C592.205,234.056,592,234.121,592,234.162Z" fill="#f5faf7"/>
    <path id="Path_738" data-name="Path 738" d="M603.538,254.745c-.047-.121-.065-.308-.15-.345s-.234.075-.355.122c.048.121.065.307.15.345S603.417,254.793,603.538,254.745Z" fill="#f5faf7"/>
    <path id="Path_739" data-name="Path 739" d="M607.032,243.391c-.048-.122-.066-.308-.15-.345s-.235.075-.356.122c.048.121.066.308.151.346S606.91,243.438,607.032,243.391Z" fill="#f5faf7"/>
    <path id="Path_740" data-name="Path 740" d="M607.032,243.392h0c-.122.047-.272.159-.355.122C606.76,243.551,606.91,243.438,607.032,243.392Z" fill="#f5faf7"/>
    <path id="Path_741" data-name="Path 741" d="M612.662,233.638c-.01.073.168.251.241.241.369-.05.367-.371.411-.649l0,0C613.033,233.271,612.712,233.269,612.662,233.638Z" fill="#f5faf7"/>
    <path id="Path_742" data-name="Path 742" d="M605.256,233.569c-.119-.051-.238-.1-.358-.153-.052.119-.1.237-.154.356.119.052.264.169.351.135S605.2,233.688,605.256,233.569Z" fill="#f5faf7"/>
    <path id="Path_743" data-name="Path 743" d="M609.648,232.674c-.12-.052-.265-.17-.35-.137s-.112.22-.165.339c.119.052.265.171.35.138S609.6,232.795,609.648,232.674Z" fill="#f5faf7"/>
    <path id="Path_744" data-name="Path 744" d="M609.649,232.675h0c-.054.12-.08.3-.166.339C609.569,232.979,609.6,232.795,609.649,232.675Z" fill="#f5faf7"/>
    <path id="Path_745" data-name="Path 745" d="M595.166,258.2c.033.084.22.109.339.161l.153-.357c-.119-.052-.238-.1-.357-.154C595.25,257.965,595.133,258.11,595.166,258.2Z" fill="#f5faf7"/>
    <path id="Path_746" data-name="Path 746" d="M605.9,231.3a.107.107,0,0,0,.073,0c.086-.034.112-.22.165-.339-.119-.052-.265-.171-.35-.137s-.113.219-.165.339A2.818,2.818,0,0,0,605.9,231.3Z" fill="#f5faf7"/>
    <path id="Path_747" data-name="Path 747" d="M605.789,230.823c-.087.034-.113.219-.166.338a0,0,0,0,1,0,0C605.676,231.042,605.7,230.857,605.789,230.823Z" fill="#f5faf7"/>
  </g>
</svg>
