<svg xmlns="http://www.w3.org/2000/svg" width="137.133" height="191.64" viewBox="0 0 137.133 191.64">
  <g id="Group_10" data-name="Group 10" transform="translate(-822.573 -127.438)">
    <rect id="Rectangle_233" data-name="Rectangle 233" width="80.333" height="72" transform="translate(874.494 143.7)" fill="#fff"/>
    <path id="Path_748" data-name="Path 748" d="M868.8,191.343q0-23.475.006-46.951c.008-7.527,2.629-10.156,10.187-10.162q35.214-.03,70.427,0c7.124.008,10.252,3.163,10.259,10.4q.045,46.7,0,93.4c-.006,7.341-2.92,10.184-10.386,10.191q-35.212.036-70.426,0c-7.174-.01-10.045-2.869-10.058-9.936Q868.769,214.82,868.8,191.343Zm45.6-45.088c-10.163,0-20.329.116-30.49-.054-4.466-.074-6.295,1.626-6.263,6.166q.194,27.241-.007,54.484c-.038,4.7,1.7,6.58,6.455,6.548q29.989-.2,59.983-.006c4.486.026,6.384-1.85,6.373-6.232q-.069-27.492-.007-54.985c.007-4.124-1.745-6.036-6.054-5.969C934.4,146.362,924.4,146.256,914.406,146.255Zm.143,85.989q-12.948,0-25.9.009c-1.8,0-4.051-.295-3.964,2.43.071,2.235,2.044,2.292,3.733,2.293q25.648.022,51.3-.008c1.843,0,4.1-.136,3.992-2.611-.115-2.642-2.533-2.086-4.26-2.094C931.15,232.222,922.85,232.244,914.549,232.244Zm-.743-4.6c8.658,0,17.316.018,25.975-.016,1.833-.006,4.1.025,3.934-2.584-.142-2.281-2.307-1.993-3.92-1.995q-25.476-.034-50.951.006c-1.732,0-4.12-.454-4.128,2.28s2.382,2.279,4.115,2.289C897.155,227.677,905.479,227.649,913.806,227.647ZM877.667,241.8c-.447-1.281-1.069-2.464-2.693-2.355a2.1,2.1,0,0,0-2.084,2.295,2.211,2.211,0,0,0,2.565,2.329A2.27,2.27,0,0,0,877.667,241.8ZM875.342,138.3c-1.318.027-2.3.569-2.416,1.969a2.2,2.2,0,0,0,2.434,2.512,2.1,2.1,0,0,0,2.193-2.252A2.177,2.177,0,0,0,875.342,138.3Zm79.674,2.713a2.157,2.157,0,0,0-2.047-2.376,2.123,2.123,0,0,0-2.355,2.521,2.036,2.036,0,0,0,2.256,2.125C954.284,143.235,954.868,142.3,955.016,141.009Zm.008,100.624a2.135,2.135,0,0,0-2.014-2.2,2.03,2.03,0,0,0-2.381,1.974,2.13,2.13,0,0,0,2.2,2.653C954.163,244.078,954.9,243.18,955.024,241.633Z" fill="#fc6400"/>
    <path id="Path_749" data-name="Path 749" d="M837.1,220.311q0-41.717,0-83.435c0-1.166-.043-2.334.014-3.5.165-3.412,1.633-5.98,5.317-5.941,3.633.039,5.246,2.537,5.266,5.99.049,8.826.327,17.668-.107,26.473-.232,4.727,1.338,6.053,5.721,5.5,2.459-.311,5.034.244,7.478-.123,4.094-.615,4.473,1.347,4.509,4.757.034,3.282-1.143,3.874-4.053,3.753-4.313-.182-10.292-1.627-12.559.568-2.922,2.829-.843,8.807-.928,13.42-.151,8.158.033,16.322-.091,24.48-.035,2.306.48,3.279,3,3.136,3.651-.209,7.346.193,10.981-.125,3.377-.3,3.435,1.538,3.185,3.888-.215,2.028,1.159,4.913-3,4.618-3.811-.271-7.659.036-11.485-.088-2.349-.076-3.206.779-3.2,3.163q.082,40.469-.023,80.936c-.014,3.468,2.189,2.671,3.98,2.617,4.322-.132,7.876,1.07,10.042,5.1,1.281,2.381,1.011,3.612-2.142,3.584q-16.735-.154-33.474-.006c-3.76.032-3.3-1.8-2.073-4.044a8.34,8.34,0,0,1,8.77-4.508c4.486.55,4.99-1.4,4.968-5.275C837.029,276.935,837.1,248.623,837.1,220.311Z" fill="#402e32"/>
    <path id="Path_750" data-name="Path 750" d="M914.406,146.256c10,0,20,.106,29.991-.049,4.309-.067,6.061,1.845,6.054,5.969q-.043,27.493.007,54.985c.011,4.383-1.887,6.259-6.373,6.232q-29.991-.176-59.983.006c-4.753.032-6.493-1.85-6.455-6.548q.22-27.241.007-54.484c-.032-4.54,1.8-6.24,6.263-6.166C894.077,146.371,904.243,146.255,914.406,146.256Z" fill="#fdfdfd"/>
    <path id="Path_751" data-name="Path 751" d="M914.549,232.244c8.3,0,16.6-.022,24.9.019,1.727.008,4.145-.548,4.26,2.094.1,2.476-2.149,2.607-3.992,2.611q-25.648.042-51.3.008c-1.689,0-3.662-.058-3.733-2.293-.087-2.725,2.166-2.426,3.964-2.43Q901.6,232.223,914.549,232.244Z" fill="#fdfdfd"/>
    <path id="Path_752" data-name="Path 752" d="M913.806,227.647c-8.326,0-16.65.029-24.976-.02-1.733-.01-4.123.454-4.115-2.289s2.4-2.276,4.128-2.28q25.474-.051,50.951-.006c1.613,0,3.778-.286,3.92,1.995.162,2.609-2.1,2.578-3.934,2.584C931.122,227.665,922.464,227.647,913.806,227.647Z" fill="#fdfdfd"/>
    <path id="Path_753" data-name="Path 753" d="M877.667,241.8a2.269,2.269,0,0,1-2.212,2.269,2.21,2.21,0,0,1-2.565-2.329,2.1,2.1,0,0,1,2.084-2.295C876.6,239.341,877.22,240.523,877.667,241.8Z" fill="#fdfdfd"/>
    <path id="Path_754" data-name="Path 754" d="M875.346,138.3a2.177,2.177,0,0,1,2.207,2.229,2.1,2.1,0,0,1-2.193,2.252,2.2,2.2,0,0,1-2.434-2.512C873.038,138.865,874.023,138.323,875.346,138.3Z" fill="#fdfdfd"/>
    <path id="Path_755" data-name="Path 755" d="M955.02,141.009c-.151,1.291-.735,2.227-2.15,2.27a2.036,2.036,0,0,1-2.256-2.125,2.124,2.124,0,0,1,2.355-2.521A2.162,2.162,0,0,1,955.02,141.009Z" fill="#fdfdfd"/>
    <path id="Path_756" data-name="Path 756" d="M955.024,241.633c-.121,1.547-.861,2.445-2.19,2.427a2.13,2.13,0,0,1-2.2-2.653,2.03,2.03,0,0,1,2.381-1.974A2.135,2.135,0,0,1,955.024,241.633Z" fill="#fdfdfd"/>
  </g>
</svg>
