<svg xmlns="http://www.w3.org/2000/svg" width="177" height="183.88" viewBox="0 0 177 183.88">
  <g id="Group_2" data-name="Group 2" transform="translate(-48.073 -379.424)">
    <path id="Path_370" data-name="Path 370" d="M190.1,533.246c6.484,0,12.408-.043,18.331.012,7.057.064,10.433,3.413,10.5,10.394.051,5.51.079,11.024-.015,16.533-.1,5.965-3.542,9.543-9.477,9.548q-75.93.075-151.859,0c-5.95-.007-9.34-3.558-9.43-9.563-.088-5.8-.1-11.6,0-17.4.1-5.9,3.593-9.371,9.59-9.487,6.207-.119,12.417-.025,19.336-.025-11.179-18.822-13.811-38.188-7.032-58.474a65.053,65.053,0,0,1,26-33.9,67.286,67.286,0,0,1,81.233,4.738C198.865,464.005,210.132,499.359,190.1,533.246Zm-56.692.007c14.941,0,29.882-.093,44.822.075a6.877,6.877,0,0,0,6.654-3.648,60.921,60.921,0,0,0,8.77-44.158c-4.1-23.938-23.033-43.374-47.513-48.77-23.912-5.273-48.876,4.777-63.156,25.422-13.774,19.914-14.1,47.241-.955,67.328,1.762,2.692,3.625,3.879,6.991,3.831C103.811,533.126,118.609,533.245,133.405,533.253Zm.581,5.988q-36.571,0-73.141,0c-6.488,0-6.732.239-6.739,6.5,0,4.063-.015,8.126,0,12.189.022,5.534.325,5.842,6.015,5.844q45.5.01,90.992,0,28.08,0,56.16-.005c5.243-.005,5.643-.434,5.667-5.769.018-4.208.011-8.417,0-12.624-.016-5.724-.427-6.138-6.251-6.14Q170.339,539.231,133.986,539.242Z" transform="translate(0 -6.465)" fill="#402e32"/>
    <path id="Path_371" data-name="Path 371" d="M200.193,379.424c23.3,1.613,42.881,21.026,43.84,43.7.1,2.386.772,5.56-2.859,5.672-3.264.1-2.983-2.842-3.117-5.169a39.644,39.644,0,0,0-37.415-37.3c-2.337-.126-5.35.059-4.93-3.177C195.895,381.739,198.621,380.657,200.193,379.424Z" transform="translate(-19.074)" fill="#402e32"/>
    <path id="Path_372" data-name="Path 372" d="M198.686,394.408c18.077.537,32.65,15.108,33.161,31.478.07,2.266.179,4.784-2.834,4.876-2.987.091-3-2.434-3.19-4.686-1.164-14.1-11.485-24.426-25.562-25.6-2.219-.185-4.97-.173-4.594-3.121C195.843,395.958,198.215,394.835,198.686,394.408Z" transform="translate(-19.069 -1.936)" fill="#402e32"/>
    <path id="Path_373" data-name="Path 373" d="M219.617,429.746c-.462.5-1.572,1.709-2.682,2.919-1.093-1.238-2.918-2.345-3.16-3.731-1.544-8.844-5.735-13.006-14.68-14.592-1.365-.243-2.443-2.111-3.651-3.228,1.431-.866,2.859-2.475,4.293-2.48C209.952,408.6,219.545,418.324,219.617,429.746Z" transform="translate(-19.044 -3.775)" fill="#402e32"/>
    <path id="Path_374" data-name="Path 374" d="M137.016,534.126c-14.8,0-29.593-.123-44.387.087-3.366.048-5.229-1.14-6.991-3.831-13.147-20.087-12.82-47.414.955-67.328,14.281-20.645,39.244-30.695,63.156-25.422,24.48,5.4,43.418,24.833,47.513,48.77a60.925,60.925,0,0,1-8.77,44.158,6.878,6.878,0,0,1-6.654,3.648C166.9,534.038,151.957,534.131,137.016,534.126Zm.226-6.219a30.471,30.471,0,1,0-30.568-30.217A30.388,30.388,0,0,0,137.242,527.907Z" transform="translate(-3.611 -7.343)" fill="#fc6400"/>
    <path id="Path_375" data-name="Path 375" d="M134.88,555.533q36.353,0,72.706,0c5.824,0,6.236.415,6.251,6.14.01,4.208.017,8.417,0,12.624-.023,5.335-.424,5.764-5.667,5.769q-28.081.021-56.16.005-45.5,0-90.992,0c-5.69,0-5.994-.309-6.015-5.844-.016-4.063-.005-8.126,0-12.189.007-6.262.251-6.5,6.739-6.5Q98.31,555.531,134.88,555.533Zm48.553,21.155H195.19v-5.357H183.433Zm-15.158.023h11.662v-5.364H168.274Zm42.184.126v-5.607H199.019v5.607Z" transform="translate(-0.894 -22.758)" fill="#fc6400"/>
    <path id="Path_376" data-name="Path 376" d="M141.792,532.466a30.471,30.471,0,1,1,30.347-30.46A30.345,30.345,0,0,1,141.792,532.466Zm24.345-30.479a24.459,24.459,0,1,0-24.672,24.472A24.523,24.523,0,0,0,166.137,501.987Z" transform="translate(-8.161 -11.902)" fill="#402e32"/>
    <path id="Path_377" data-name="Path 377" d="M202.494,579.033v-5.357h11.757v5.357Z" transform="translate(-19.955 -25.103)"/>
    <path id="Path_378" data-name="Path 378" d="M185.086,579.059V573.7h11.662v5.364Z" transform="translate(-17.706 -25.105)"/>
    <path id="Path_379" data-name="Path 379" d="M231.832,579.168H220.393v-5.607h11.439Z" transform="translate(-22.268 -25.088)"/>
    <path id="Path_380" data-name="Path 380" d="M167.027,502.879a24.459,24.459,0,1,1-24.274-24.453A24.476,24.476,0,0,1,167.027,502.879Zm-24.3,18.247a18.237,18.237,0,1,0-18.406-18.047A18.178,18.178,0,0,0,142.731,521.126Z" transform="translate(-9.051 -12.794)" fill="#d73502"/>
    <path id="Path_381" data-name="Path 381" d="M143.653,522.05a18.237,18.237,0,1,1,18.089-18.388A18.135,18.135,0,0,1,143.653,522.05Zm0-30.465a12.231,12.231,0,1,0,12.09,12.3A12.252,12.252,0,0,0,143.658,491.585Z" transform="translate(-9.973 -13.718)" fill="#402e32"/>
    <path id="Path_382" data-name="Path 382" d="M144.549,492.477a12.231,12.231,0,1,1-.56,24.455,12.231,12.231,0,0,1,.56-24.455Z" transform="translate(-10.864 -14.609)" fill="#fc6400"/>
  </g>
</svg>
