<svg xmlns="http://www.w3.org/2000/svg" width="167.232" height="162.01" viewBox="0 0 167.232 162.01">
  <g id="Group_3" data-name="Group 3" transform="translate(-300.492 -363.95)">
    <path id="Path_383" data-name="Path 383" d="M342.709,527.178q58.745,0,117.491-.021c3.83,0,6.131,1.921,7.524,5.269v34.949c-2.212,4.245-5.947,4.766-10.3,4.755-37.692-.1-75.384-.057-113.076-.056q-18.195,0-36.387,0c-3.237.005-5.689-1.191-7.056-4.252-.078-.176-.272-.3-.413-.449V532.1c.484-.258.489-.808.732-1.213a7.048,7.048,0,0,1,6.422-3.712c7.107.01,14.214,0,21.322.008a9.581,9.581,0,0,0,2.884-.3c.368.452.884.314,1.35.315C336.37,527.2,339.539,527.185,342.709,527.178ZM383.928,565.8q37.546,0,75.09.032c1.42,0,1.822-.324,1.811-1.785q-.11-14.039-.009-28.078c.009-1.438-.3-1.911-1.854-1.91q-74.927.068-149.855.009c-1.347,0-1.73.332-1.721,1.7q.1,14.039,0,28.078c-.012,1.541.319,1.994,1.934,1.991Q346.627,565.751,383.928,565.8Z" transform="translate(0 -46.169)" fill="#402e32"/>
    <path id="Path_384" data-name="Path 384" d="M526.358,432.794c-1.817,3.805-2.968,7.867-4.525,11.771-.2.5-.357,1.022-.563,1.521-.672,1.629-1.729,2.2-3.341,1.632-3.519-1.232-7.012-2.536-10.516-3.81.558-2.828,1.879-5.387,2.886-8.052,1.178-3.117,2.217-6.291,3.691-9.291,3.365,1.188,6.718,2.414,10.1,3.541a5.675,5.675,0,0,1,2.264,1.71Z" transform="translate(-58.634 -17.743)" fill="#402e32"/>
    <path id="Path_385" data-name="Path 385" d="M454.345,427.475c-1.448,5.031-4.483,6.37-10.079,4.336-19.009-6.907-38.118-13.541-57.192-20.271-.506-.178-1.043-.267-1.567-.4a55.333,55.333,0,0,0-8.087-2.9c-2.548-.93-5.091-1.875-7.647-2.785-3.068-1.091-4.425-3.673-3.29-6.716q5.838-15.65,11.807-31.25c1.178-3.076,4.024-4.243,7.215-3.122q19.291,6.774,38.571,13.58,18.744,6.612,37.477,13.253a12.914,12.914,0,0,1,1.946.826,4.377,4.377,0,0,1,2.124,5.549c-.278.819-.572,1.632-.859,2.448Q459.554,413.749,454.345,427.475Z" transform="translate(-18.587 0)" fill="#fc6400"/>
    <path id="Path_386" data-name="Path 386" d="M371.232,425.753a55.163,55.163,0,0,1,8.087,2.9,58.865,58.865,0,0,0-10.455,4c-9.394,5.014-12.759,13.027-9.737,23.229a59.161,59.161,0,0,0,5.176,11.557c2.9,5.294,4.459,10.849,2.812,16.9-1.509,5.547-5.245,9.385-9.8,12.581a9,9,0,0,0-2.208,1.6c-3.17.007-6.339.019-9.508.016-.466,0-.982.137-1.35-.315,2.3-1.1,4.628-2.138,6.888-3.311a27.563,27.563,0,0,0,6.1-4.333c5.881-5.483,7.065-12.044,3.394-19.2-1.461-2.849-3.222-5.537-4.511-8.481-2.363-5.4-3.931-10.97-3.283-16.923.879-8.062,5.643-13.439,12.406-17.3C367.17,427.574,369.233,426.72,371.232,425.753Z" transform="translate(-12.4 -17.513)" fill="#402e32"/>
    <path id="Path_387" data-name="Path 387" d="M489.244,441.738q5.209-13.726,10.419-27.451c2.2.775,4.4,1.529,6.584,2.328,3.008,1.1,3.766,2.762,2.718,5.841a4.562,4.562,0,0,0-.125.628c-1.474,3-2.513,6.174-3.691,9.291-1.007,2.666-2.328,5.224-2.886,8.052-.562.431-.588,1.134-.856,1.711a3.636,3.636,0,0,1-4.788,2.168C494.147,443.493,491.7,442.6,489.244,441.738Z" transform="translate(-53.486 -14.264)" fill="#402e32"/>
    <path id="Path_388" data-name="Path 388" d="M386.655,568.635q-37.3,0-74.6.039c-1.615,0-1.946-.45-1.934-1.991q.112-14.039,0-28.078c-.009-1.371.373-1.7,1.721-1.7q74.928.053,149.855-.009c1.554,0,1.863.472,1.854,1.91q-.087,14.039.009,28.078c.011,1.461-.391,1.788-1.811,1.785Q424.2,568.6,386.655,568.635Zm23.08-9.779a6.465,6.465,0,0,0,6.754-6.254,6.665,6.665,0,0,0-13.3-.031A6.422,6.422,0,0,0,409.735,558.857Zm-46,0a6.261,6.261,0,1,0,.114-12.493,6.551,6.551,0,0,0-6.673,6.209A6.441,6.441,0,0,0,363.738,558.859Zm23.1-.07a6.2,6.2,0,0,0,6.511-6.077,6.52,6.52,0,0,0-13.032.008A6.227,6.227,0,0,0,386.84,558.789Zm46.351-.027a6.193,6.193,0,0,0,6.5-6.06,6.5,6.5,0,0,0-12.994.028C426.721,556.214,429.465,558.765,433.19,558.762Zm-92.7.055c3.83,0,6.535-2.56,6.532-6.179a6.56,6.56,0,0,0-13.106-.01A6.262,6.262,0,0,0,340.49,558.816Z" transform="translate(-2.727 -49.006)" fill="#fdfdfd"/>
    <path id="Path_389" data-name="Path 389" d="M446.536,562.6a6.423,6.423,0,0,1-6.547-6.286,6.662,6.662,0,1,1,6.547,6.286Z" transform="translate(-39.529 -52.751)" fill="#fc6400"/>
    <path id="Path_390" data-name="Path 390" d="M382.348,562.6a6.44,6.44,0,0,1-6.558-6.285,6.664,6.664,0,0,1,13.3.029A6.457,6.457,0,0,1,382.348,562.6Z" transform="translate(-21.337 -52.751)" fill="#fc6400"/>
    <path id="Path_391" data-name="Path 391" d="M414.6,562.555a6.227,6.227,0,0,1-6.521-6.07,6.52,6.52,0,0,1,13.032-.008A6.2,6.2,0,0,1,414.6,562.555Z" transform="translate(-30.486 -52.772)" fill="#fc6400"/>
    <path id="Path_392" data-name="Path 392" d="M479.289,562.532c-3.725,0-6.469-2.548-6.49-6.032a6.5,6.5,0,0,1,12.994-.028A6.192,6.192,0,0,1,479.289,562.532Z" transform="translate(-48.826 -52.777)" fill="#fc6400"/>
    <path id="Path_393" data-name="Path 393" d="M349.9,562.563a6.262,6.262,0,0,1-6.574-6.189,6.56,6.56,0,0,1,13.106.01C356.436,560,353.73,562.562,349.9,562.563Z" transform="translate(-12.138 -52.753)" fill="#fc6400"/>
  </g>
</svg>
