<svg xmlns="http://www.w3.org/2000/svg" width="109.724" height="185.755" viewBox="0 0 109.724 185.755">
  <g id="Group_5" data-name="Group 5" transform="translate(-807.521 -381.463)">
    <path id="Path_411" data-name="Path 411" d="M899.254,502.3c-.006,15.661-.077,31.322.055,46.982.026,3.1-.583,4.321-4.06,4.283q-26.235-.286-52.478-.011c-3.638.039-4.372-1.184-4.358-4.556q.181-46.733-.022-93.466c-.024-4.149,1.367-4.889,5.118-4.849,16.992.184,33.989.225,50.979-.029,4.2-.063,4.88,1.489,4.841,5.162C899.164,471.312,899.26,486.807,899.254,502.3Zm-52.571-.076c0,8.66.049,17.321-.035,25.98-.021,2.178.338,3.357,2.945,3.336q19.233-.156,38.47,0c2.467.019,3.078-.935,3.068-3.233q-.106-25.979.008-51.96c.017-2.834-.9-3.72-3.729-3.689-12.322.133-24.648.177-36.969-.018-3.311-.052-3.846,1.271-3.8,4.105C846.772,485.236,846.687,493.731,846.683,502.225Z" fill="#fc6400"/>
    <path id="Path_412" data-name="Path 412" d="M876.526,394.683c11.714,2.661,22.179,5.313,32.086,9.74a22.032,22.032,0,0,1,7.514,4.8c.824.891,1.47,2,.907,3.175-.73,1.521-2,.536-3.042.327-11.414-2.275-22.854-4.434-34.22-6.931-3.351-.736-4.761-.241-4.192,3.354a2.97,2.97,0,0,1,0,.5c-.063,9.958-.061,9.849-10.082,9.605-2.638-.063-3.627-.809-3.324-3.408.152-1.315-.029-2.665.037-3.995.106-2.146.113-4.09-2.992-3.609-.729.112-1.852.244-1.923-.943-.21-3.511-2.38-1.846-3.858-1.412-16.578,4.863-29.445,20.592-29.936,37.88-.521,18.477-.161,36.978-.174,55.468,0,.976-.188,2.725.609,2.713,5.266-.077,3.422,4.018,3.651,6.4,1.263,13.091,2.181,26.215,3.364,39.315.21,2.332-.557,2.881-2.683,2.849-5.995-.091-12-.148-17.989.019-2.666.075-2.907-1.035-2.708-3.282,1.237-13.932,2.349-27.874,3.505-41.813.13-1.576-.307-3.228,2.416-3.32,2.979-.1,1.644-2.8,1.652-4.311.1-16.658.041-33.316.063-49.975.031-24.787,14.73-43.978,38.749-50.521,1.909-.52,3.623-.841,3.252-3.381-.023-.163.013-.334,0-.5-.316-3.638,6.248-.075,5.125-5.192-1.09-4.973,3.6-3.327,5.748-3.548,12.254-1.26,24.545-2.143,36.824-3.153q.249-.021.5-.033c2.15-.093,5.165-.184,5.6,1.785.478,2.131-2.656,2.438-4.384,3.1-8.247,3.165-16.9,4.893-25.457,6.964C880.067,393.619,878.985,393.975,876.526,394.683Z" fill="#402e32"/>
    <path id="Path_413" data-name="Path 413" d="M868.83,449.054c-8.822,0-17.647-.14-26.465.074-3.151.077-3.885-.973-3.933-3.964-.217-13.751,7.816-22.177,21.587-22.284,5.825-.045,11.652.092,17.474-.047,13.423-.32,22.744,9.353,21.8,22.4-.217,3.026-.93,3.98-4,3.912-8.817-.2-17.643-.069-26.465-.069C868.83,449.068,868.83,449.062,868.83,449.054Z" fill="#fc6400"/>
    <path id="Path_414" data-name="Path 414" d="M868.8,555.892c8.815,0,17.631-.035,26.446.014,4.481.025,4.933.879,2.8,4.91a11.221,11.221,0,0,1-10.492,6.37c-12.475.053-24.949.027-37.425.006a11.339,11.339,0,0,1-8.1-3.293c-1.961-1.9-3.9-4.443-3.024-6.952.794-2.281,3.836-.931,5.85-.962,7.982-.124,15.968-.051,23.951-.051C868.8,555.919,868.8,555.905,868.8,555.892Z" fill="#fc6400"/>
    <path id="Path_415" data-name="Path 415" d="M846.685,502.225c0-8.493.088-16.988-.045-25.48-.045-2.834.49-4.157,3.8-4.105,12.32.194,24.646.15,36.969.018,2.832-.03,3.746.855,3.729,3.689q-.148,25.979-.008,51.96c.01,2.3-.6,3.252-3.068,3.233q-19.234-.14-38.47,0c-2.607.021-2.966-1.158-2.945-3.336C846.731,519.546,846.683,510.885,846.685,502.225Zm13.619,23.24c.313-5.223-1.8-10.308,2.418-14.209,1.041.351.465,2.352,2.275,2.307a22.667,22.667,0,0,1,4.877-9.42,19.113,19.113,0,0,0,5.174,10.921c1.656,1.762,1.822,4.19,1.543,6.6-.1.855-.971,2.05.408,2.561,1.127.418,1.675-.7,2.429-1.326,6.228-5.191,8.3-14.464,5.037-23.246-.779-2.1-1.063-4.859-3.61-5.518-3.243-.839-2.128,3.225-3.994,4.113a8.192,8.192,0,0,1-1.146.327c-1.338-7.785-4.446-14.574-11.422-20.16.625,7.731-1.1,13.747-6.232,18.529C850.3,504.177,848.952,517.886,860.3,525.465Z" fill="#fdfdfd"/>
    <path id="Path_416" data-name="Path 416" d="M860.3,525.465c-11.352-7.579-10.006-21.288-2.244-28.518,5.133-4.782,6.857-10.8,6.232-18.529,6.976,5.586,10.084,12.375,11.422,20.16a8.192,8.192,0,0,0,1.146-.327c1.866-.889.751-4.952,3.994-4.113,2.548.658,2.831,3.419,3.61,5.518,3.259,8.782,1.19,18.055-5.037,23.246-.754.628-1.3,1.744-2.429,1.326-1.379-.511-.506-1.705-.408-2.561.279-2.413.113-4.842-1.543-6.6a19.113,19.113,0,0,1-5.174-10.921,22.662,22.662,0,0,0-4.877,9.42c-1.811.045-1.234-1.956-2.275-2.307C858.505,515.157,860.617,520.242,860.3,525.465Z" fill="#fc6400"/>
  </g>
</svg>
