<svg xmlns="http://www.w3.org/2000/svg" width="137.506" height="161.077" viewBox="0 0 137.506 161.077">
  <g id="Group_4" data-name="Group 4" transform="translate(-593.599 -381.398)">
    <path id="Path_394" data-name="Path 394" d="M626.647,402.639q-16.268,0-32.537-.032a7.669,7.669,0,0,1-.511-1.54h33.615c-.874-10.031,5.835-13.195,12.745-15.6,15.8-5.5,31.742-5.313,47.627-.119a30.506,30.506,0,0,1,3.435,1.455c5.739,2.689,10.091,6.382,9.188,14.16h30.9c-2.051,2.289-2.051,2.29-9.85,2.29H700.17a36.6,36.6,0,0,0,.031,4.9c.947,6.382-2.225,10.419-7.652,12.733a11.974,11.974,0,0,0-7.457,8.525c-1.647,6.094-6.18,9.123-12.184,9.537A134.116,134.116,0,0,1,655.59,439c-7.035-.427-11.934-4.075-13.8-11.094a8.383,8.383,0,0,0-5.428-6.094c-6.287-2.575-10.39-6.8-9.061-14.344a12.372,12.372,0,0,0-.083-2.893,2.78,2.78,0,0,0-.278-.745C626.84,403.435,626.743,403.037,626.647,402.639Zm3.36,1.119c22.566-13.072,44.8-13.142,67.19-.448,1.345-7.991.1-11.026-7.538-14.2-16.547-6.88-33.391-6.876-50.122-.707C630.4,391.768,629.187,394.249,630.007,403.757ZM688.65,419.49l1.266.941c2.518-2.666,6.389-4.967,7.229-8.086,1.179-4.374-2.821-7.363-6.4-9.672a12.756,12.756,0,0,0-3.681-1.855c-5.6-1.37-11.187-3.191-16.88-3.707-11.667-1.057-23.223-.262-33.67,5.933-3.524,2.091-7.445,5.15-6.3,9.273.811,2.919,4.931,4.925,7.6,7.312.131.118.489-.017,1.04-.055a17.35,17.35,0,0,0-.777-3.545c-1.913-4.272.031-6.934,3.684-8.645,14.768-6.91,29.574-6.908,44.265.225,3.256,1.581,5.225,4.013,3.463,8.008A19.2,19.2,0,0,0,688.65,419.49ZM647.2,432.61c7.021,6.433,28.557,6.115,33.078-.306C674.3,426.252,653.533,426.3,647.2,432.61Zm34.917-3.459c1.941-2.093.669-3.348-1.136-4.562-7.335-4.933-26.889-4.99-34.414-.131-2.274,1.469-3.085,2.977-1.01,4.9C657.785,423.937,669.727,423.9,682.118,429.152Zm-20.68-10.817,4.422-.193v-13.2l-4.422.242ZM674.8,406.14c-2.532,9.542-2.026,12.742,2.226,13.4l3.1-11.915Zm-24.435,13.485c4.139-.895,4.668-5.351,2.005-13.482l-4.987,1.6Zm6.459-1.385,1.72.026c0-3.874.041-7.748-.058-11.619-.012-.418-1.061-1.243-1.245-1.146-.607.32-1.5,1-1.465,1.495C656.016,410.75,656.45,414.494,656.824,418.24ZM669.2,405.308v13.821C672.106,413.825,672.021,406.786,669.2,405.308Zm18.352,6.861c-3.375,3.805-4.615,8.858-3.06,11.641C685.6,419.588,686.576,415.879,687.551,412.169Zm-40.977,8.46,1.251-.221q-1.407-5.678-2.813-11.355l-1.81.481Q644.888,415.083,646.574,420.629Zm32.954-.545c.367.22.735.438,1.1.658q1.768-5.608,3.534-11.216l-1.613-.5Q681.039,414.555,679.527,420.084Zm-38.418-8.253-1.393.464q1.641,5.431,3.283,10.862l1.47-.467Q642.789,417.26,641.109,411.831Z" fill="#402e32"/>
    <path id="Path_395" data-name="Path 395" d="M693.076,493.306c-1.272,4.281-2.4,7.364-3.084,10.544-1.185,5.55-.817,10.751,2.459,15.869,7.36,11.5,4.815,24.863-5.856,33.289-.707.559-1.415,1.115-3.092,2.434,16.494.038,31.823-.018,47.148.036l-.052,1.943H594.022c-.1-.368-.2-.737-.3-1.1a19,19,0,0,1,3.87-.823c14.659-.058,29.32-.037,43.98-.036h5.8c-14.955-10.134-19.465-22.94-14.762-38.859,1.825-6.182,4.628-11.721,12.119-14.617-.164,2.451-.421,4.14-.356,5.817a55.327,55.327,0,0,0,.763,9.4c.51,2.384,2.3,2.524,3.956.677,2.7-3,1.622-6.266,1.052-9.76-1.012-6.2-2.192-12.568-1.758-18.757a22.556,22.556,0,0,1,17.843-20.005c-2.193,13.366-6.135,27.063,6.308,38.219C676.946,499.1,684.038,495.676,693.076,493.306ZM666.451,515.96c-.369,6.078-2.992,12.527,2.223,18.046,3.112-3.195,6.083-5.948,11.1-5.892a31.455,31.455,0,0,0-1.142,4.659c-.178,2.147-.776,4.684.091,6.409,2.208,4.392,3.93,8.68,1.91,14.041,12.732-5.724,17.076-20.253,9.752-31.841-3.886-6.147-4.253-12.352-2.733-19.046.35-1.543.74-3.078,1.194-4.958-7.312,2.351-12.274,6.52-14.71,13.645-7.52-3.427-11.326-9.267-12.1-16.57-.731-6.861-.157-13.86-.157-20.96a21.465,21.465,0,0,0-10.46,13,32.168,32.168,0,0,0,.9,20.353c1.367,3.766,2.3,7.638-.187,11.1-1.24,1.723-3.842,3.958-5.326,3.637-1.83-.4-3.829-2.982-4.506-5.033-.939-2.85-.716-6.083-1-9.3-6.049,4.916-9.352,17.435-7.276,26.914,1.69,7.719,8.3,16.006,13.881,17.4-2.2-9.922.594-17.628,6.792-18.511l1.317,7.032,1.53-.243c-.137-1.5-.242-3.009-.416-4.507-.286-2.452-.96-4.913-.861-7.346C656.527,521.395,660.314,516.933,666.451,515.96Zm3.246,21.646c-7.683-3.375-6.666-10.538-7.552-17.248-1.66,2.686-3.067,5.389-3.279,8.182-.2,2.64,1.385,5.412,1.194,8.054-.154,2.13-1.263,5.132-2.882,6-2.562,1.37-3.636-1.331-4.277-3.567a22.367,22.367,0,0,0-1.135-2.364c-.854,2.921-1.627,4.914-2.007,6.979-1.229,6.69,3.674,12.807,10.5,11.9,3.662-.486,7.442-.08,11.168-.09,5.776-.015,8.907-4.237,7.25-9.925-1.292-4.437-2.747-8.828-4.232-13.562C673.067,533.607,671.447,535.529,669.7,537.605Z" transform="translate(-0.021 -14.946)" fill="#d73502"/>
    <path id="Path_396" data-name="Path 396" d="M637.417,404.261c-.82-9.508.4-11.989,9.531-15.358,16.731-6.17,33.575-6.174,50.122.707,7.639,3.177,8.883,6.211,7.538,14.2C682.214,391.118,659.983,391.189,637.417,404.261Z" transform="translate(-7.41 -0.503)" fill="#ffb88a"/>
    <path id="Path_397" data-name="Path 397" d="M696.1,422.627a18.989,18.989,0,0,1,.835-3.873c1.762-4-.207-6.426-3.463-8.008-14.69-7.134-29.5-7.136-44.265-.225-3.653,1.711-5.6,4.374-3.684,8.645a17.412,17.412,0,0,1,.777,3.545c-.551.038-.909.173-1.04.055-2.666-2.387-6.787-4.393-7.6-7.312-1.145-4.124,2.776-7.183,6.3-9.273,10.447-6.2,22-6.992,33.67-5.933,5.693.516,11.28,2.337,16.88,3.707a12.811,12.811,0,0,1,3.68,1.855c3.583,2.308,7.583,5.3,6.4,9.672-.84,3.119-4.711,5.419-7.229,8.086Q696.736,423.1,696.1,422.627Z" transform="translate(-7.454 -3.136)" fill="#ffb88a"/>
    <path id="Path_398" data-name="Path 398" d="M658.174,442.114c6.333-6.311,27.1-6.358,33.078-.306C686.732,448.229,665.2,448.547,658.174,442.114Z" transform="translate(-10.974 -9.504)" fill="#ffb88a"/>
    <path id="Path_399" data-name="Path 399" d="M692.51,437.229c-12.391-5.246-24.333-5.214-36.56.2-2.075-1.92-1.263-3.429,1.01-4.9,7.525-4.859,27.078-4.8,34.414.131C693.179,433.88,694.451,435.135,692.51,437.229Z" transform="translate(-10.393 -8.077)" fill="#ffb88a"/>
    <path id="Path_400" data-name="Path 400" d="M675.326,423.153V410l4.422-.242v13.2C678.374,423.021,676.988,423.082,675.326,423.153Z" transform="translate(-13.888 -4.819)" fill="#ffb88a"/>
    <path id="Path_401" data-name="Path 401" d="M691.111,411.2l5.33,1.487c-1.087,4.168-2.1,8.058-3.1,11.915C689.084,423.947,688.579,420.747,691.111,411.2Z" transform="translate(-16.31 -5.065)" fill="#ffb88a"/>
    <path id="Path_402" data-name="Path 402" d="M661.377,424.691,658.4,412.807l4.987-1.6C666.045,419.34,665.516,423.8,661.377,424.691Z" transform="translate(-11.011 -5.066)" fill="#ffb88a"/>
    <path id="Path_403" data-name="Path 403" d="M669.553,423.172c-.374-3.747-.808-7.49-1.048-11.245-.032-.492.857-1.175,1.465-1.495.184-.1,1.233.728,1.245,1.146.1,3.871.058,7.745.058,11.619Z" transform="translate(-12.729 -4.933)" fill="#ffb88a"/>
    <path id="Path_404" data-name="Path 404" d="M684.676,410.2c2.822,1.478,2.907,8.517,0,13.821Z" transform="translate(-15.477 -4.895)" fill="#ffb88a"/>
    <path id="Path_405" data-name="Path 405" d="M706.023,418.469c-.975,3.71-1.949,7.419-3.06,11.641C701.408,427.327,702.648,422.274,706.023,418.469Z" transform="translate(-18.472 -6.3)" fill="#ffb88a"/>
    <path id="Path_406" data-name="Path 406" d="M656.729,426.291q-1.686-5.547-3.372-11.094l1.81-.481q1.406,5.679,2.813,11.355Z" transform="translate(-10.155 -5.662)" fill="#ffb88a"/>
    <path id="Path_407" data-name="Path 407" d="M697.119,425.74q1.512-5.528,3.022-11.058l1.613.5q-1.767,5.608-3.534,11.216C697.854,426.178,697.487,425.96,697.119,425.74Z" transform="translate(-17.592 -5.656)" fill="#ffb88a"/>
    <path id="Path_408" data-name="Path 408" d="M650.551,418.061q1.68,5.429,3.36,10.859l-1.47.467q-1.641-5.43-3.283-10.862Q649.854,418.292,650.551,418.061Z" transform="translate(-9.441 -6.23)" fill="#ffb88a"/>
    <path id="Path_409" data-name="Path 409" d="M674.573,516.808c-6.137.974-9.923,5.435-10.191,12.018-.1,2.433.574,4.894.861,7.346.173,1.5.279,3,.416,4.507l-1.53.243q-.659-3.52-1.316-7.032c-6.2.882-8.987,8.59-6.792,18.511-5.578-1.39-12.191-9.678-13.881-17.4-2.076-9.479,1.228-22,7.276-26.914.287,3.218.065,6.45,1,9.3.676,2.051,2.675,4.638,4.506,5.033,1.483.32,4.086-1.914,5.326-3.637,2.491-3.46,1.554-7.332.187-11.1a32.174,32.174,0,0,1-.9-20.353,21.46,21.46,0,0,1,10.46-13c0,7.1-.574,14.1.157,20.96.778,7.3,4.583,13.142,12.1,16.57,2.436-7.124,7.4-11.293,14.71-13.645-.453,1.88-.843,3.414-1.194,4.958-1.52,6.694-1.153,12.9,2.733,19.046,7.324,11.589,2.98,26.117-9.752,31.841,2.02-5.361.3-9.649-1.91-14.041-.867-1.725-.27-4.262-.091-6.409a31.429,31.429,0,0,1,1.142-4.659c-5.016-.056-7.987,2.7-11.1,5.892C671.581,529.335,674.2,522.886,674.573,516.808Z" transform="translate(-8.143 -15.794)" fill="#fc6400"/>
    <path id="Path_410" data-name="Path 410" d="M681.13,548.048l4.754-5.639c1.484,4.735,2.939,9.125,4.232,13.562,1.657,5.688-1.474,9.91-7.25,9.925-3.726.011-7.505-.4-11.168.09-6.831.9-11.735-5.213-10.5-11.9.38-2.065,1.153-4.059,2.007-6.979a22.275,22.275,0,0,1,1.135,2.364c.642,2.236,1.716,4.937,4.277,3.567,1.619-.867,2.728-3.869,2.882-6,.19-2.643-1.4-5.414-1.195-8.054.212-2.793,1.619-5.5,3.279-8.182C674.463,537.509,673.447,544.673,681.13,548.048Z" transform="translate(-11.455 -25.389)" fill="#fff"/>
  </g>
</svg>
